<?xml version="1.0" standalone="no"?>
<!DOCTYPE svg PUBLIC "-//W3C//DTD SVG 20010904//EN"
 "http://www.w3.org/TR/2001/REC-SVG-20010904/DTD/svg10.dtd">
<svg version="1.0" xmlns="http://www.w3.org/2000/svg"
 width="512.000000pt" height="512.000000pt" viewBox="0 0 512.000000 512.000000"
 preserveAspectRatio="xMidYMid meet">
<metadata>
Created by potrace 1.14, written by Peter Selinger 2001-2017
</metadata>
<g transform="translate(0.000000,512.000000) scale(0.100000,-0.100000)"
fill="#000000" stroke="none">
<path d="M2395 4085 c-88 -19 -275 -98 -262 -111 2 -2 46 2 98 11 138 22 275
20 352 -6 90 -30 95 -36 29 -31 -212 15 -407 -149 -456 -384 -14 -68 -43 -291
-48 -369 -3 -39 -3 -40 -50 -47 -68 -9 -136 -33 -273 -96 -153 -70 -187 -73
-300 -20 -183 85 -379 114 -477 70 -68 -30 -140 -102 -176 -175 -68 -139 -87
-285 -72 -582 21 -445 81 -729 211 -1004 91 -192 160 -257 266 -252 39 2 91
59 205 229 155 231 205 282 277 282 41 0 89 -44 116 -105 12 -27 39 -104 59
-170 63 -201 107 -265 185 -265 36 0 62 31 114 135 34 70 114 277 157 410 12
39 25 74 27 78 3 5 29 -46 59 -113 89 -203 174 -350 242 -422 32 -33 42 -38
83 -38 101 0 148 81 224 380 75 296 121 373 220 373 103 0 143 -47 320 -378
143 -267 200 -360 255 -417 49 -51 73 -58 127 -37 204 76 469 793 524 1414 15
178 15 718 -1 850 -43 361 -190 599 -412 666 -122 37 -264 16 -502 -75 -152
-58 -368 -19 -689 123 -203 90 -294 107 -432 76z m1550 -280 c127 -33 231
-123 293 -254 30 -62 36 -87 39 -155 l3 -81 -15 55 c-60 214 -202 365 -405
431 l-55 18 40 0 c23 1 68 -6 100 -14z m-1104 -251 c36 -18 73 -92 89 -174 11
-61 18 -276 8 -285 -3 -4 -21 -3 -40 0 l-34 6 4 93 c3 74 1 101 -13 130 -20
42 -65 70 -98 60 -53 -15 -125 -113 -141 -191 -7 -30 -10 -32 -39 -26 -18 3
-34 7 -36 9 -7 7 42 139 80 215 43 86 79 133 124 160 37 23 57 24 96 3z m457
-100 c56 -39 92 -177 92 -356 l0 -110 -32 7 c-18 4 -36 9 -40 12 -4 2 -5 39
-1 83 13 165 -65 248 -159 170 -39 -32 -98 -138 -98 -176 0 -21 -2 -21 -39
-12 l-40 10 29 78 c55 148 126 266 179 295 35 19 81 19 109 -1z m-530 -106
c18 -18 15 -36 -7 -48 -15 -7 -23 -6 -35 6 -12 12 -13 20 -6 35 12 22 30 25
48 7z m447 -118 c0 -18 -6 -26 -23 -28 -13 -2 -25 3 -28 12 -10 26 4 48 28 44
17 -2 23 -10 23 -28z m-425 -55 c0 -8 -4 -15 -9 -15 -13 0 -22 16 -14 24 11
11 23 6 23 -9z m-349 -153 c146 -99 405 -162 794 -193 141 -11 392 -7 474 8
l34 6 -24 18 c-13 10 -18 19 -11 19 19 0 72 52 72 70 1 11 4 9 12 -5 14 -26
47 -59 73 -73 19 -11 19 -11 -3 -12 -15 0 -26 -7 -29 -20 -3 -11 -9 -18 -13
-15 -10 6 -26 -14 -33 -40 -4 -19 -5 -19 -6 1 0 12 -7 27 -15 33 -11 9 -23 -6
-65 -81 -86 -155 -143 -226 -207 -255 -110 -50 -227 -67 -464 -68 -272 0 -397
25 -522 104 -56 36 -90 103 -119 232 -15 71 -49 312 -49 352 0 5 12 -4 28 -20
15 -16 48 -43 73 -61z m797 57 c-2 -6 -8 -10 -13 -10 -5 0 -11 4 -13 10 -2 6
4 11 13 11 9 0 15 -5 13 -11z m-2193 -72 c-73 -53 -119 -123 -141 -212 -10
-42 -12 -45 -13 -19 -2 74 58 177 131 226 49 33 66 37 23 5z m869 -290 c27
-27 61 -113 71 -178 6 -41 4 -47 -13 -51 -17 -5 -21 1 -25 34 -10 72 -67 130
-107 108 -27 -14 -50 -68 -50 -115 0 -31 -3 -35 -25 -35 -30 0 -31 10 -10 98
34 144 98 200 159 139z m-289 -3 c33 -33 62 -107 79 -201 5 -30 3 -33 -19 -33
-20 0 -25 5 -25 25 0 40 -26 92 -55 111 -24 16 -30 16 -53 3 -28 -15 -50 -66
-51 -116 -1 -28 -5 -33 -26 -33 -30 0 -29 -6 -9 82 30 129 60 178 113 178 16
0 37 -7 46 -16z m275 -119 c0 -8 -6 -15 -14 -15 -17 0 -28 14 -19 24 12 12 33
6 33 -9z m-290 -10 c0 -8 -7 -15 -15 -15 -8 0 -15 7 -15 15 0 8 7 15 15 15 8
0 15 -7 15 -15z m-472 -172 c9 -9 9 -14 1 -19 -29 -18 109 -61 238 -74 175
-18 526 20 701 75 39 13 75 19 77 14 3 -4 -6 -42 -20 -83 -54 -163 -81 -198
-182 -236 -101 -38 -213 -53 -373 -47 -257 8 -331 49 -417 227 -29 61 -52 96
-58 91 -6 -5 -22 4 -37 20 -15 16 -22 29 -15 29 7 0 19 9 27 20 14 20 20 18
58 -17z"/>
</g>
</svg>
