<?xml version="1.0" encoding="UTF-8"?>
<svg id="Layer_1" data-name="Layer 1" xmlns="http://www.w3.org/2000/svg" viewBox="0 0 315.58 234.5">
  <defs>
    <style>
      .cls-1 {
        fill: #fff;
        stroke-width: 0px;
      }
    </style>
  </defs>
  <path class="cls-1" d="M282.86,115.94C282.16,51.79,229.95,0,165.63,0c-42.82,0-80.27,22.96-100.74,57.23-4.69-1.46-9.69-2.24-14.86-2.24C22.4,54.99,0,77.39,0,105.03s22.4,50.04,50.04,50.04c1.52,0,3.02-.08,4.51-.21,15.67,46.31,59.49,79.64,111.09,79.64,23.53,0,45.43-6.93,63.79-18.86,8.6,5.26,18.7,8.29,29.51,8.29,31.28,0,56.64-25.36,56.64-56.64,0-22.73-13.39-42.32-32.71-51.34Z"/>
</svg>