<?xml version="1.0" encoding="UTF-8"?><svg id="Layer_1" xmlns="http://www.w3.org/2000/svg" viewBox="0 0 2229.36 644.11"><defs><style>.cls-1{fill:#fff;}.cls-2{fill:#bfd9ea;}.cls-3{fill:none;}.cls-4{fill:#1e273a;}</style></defs><rect class="cls-3" x="50" width="568.29" height="644.11"/><path class="cls-1" d="M465.4,47.02c12.96,0,23.51-10.55,23.51-23.51S478.36,0,465.4,0s-23.51,10.55-23.51,23.51,10.55,23.51,23.51,23.51Z"/><path class="cls-1" d="M617.12,119.11c-1.11-3.85-3.09-7.43-5.74-10.43-4.9-5.56-11.36-8.86-18.37-9.63l-31.56-32.27-.32-.32c-3.99-3.71-9.56-5.28-14.9-4.17-5.33,1.12-9.8,4.77-11.96,9.77-.53,1.19-1.06,2.48-1.61,3.8-4.24,10.17-9.52,22.8-19.99,27.07-.57.23-1.11.46-1.66.7-36.27-30-80.3-50.97-128.63-59.43-4.37-.78-8.8-1.44-13.25-1.99-11.45-1.46-23.13-2.2-34.98-2.2-153.34,0-277.63,124.31-277.63,277.64,0,47,11.68,91.29,32.31,130.1-.08,3.95.72,7.99,2.42,11.83,2.71,6.09,7.33,10.86,12.99,13.74,49.93,73.6,134.26,121.96,229.91,121.96,153.33,0,277.62-124.31,277.62-277.63,0-48.5-12.44-94.08-34.3-133.76,12.7-13.04,24.23-25.99,34.54-38.8,5.85-7.24,7.77-16.73,5.11-25.98Z"/><path class="cls-2" d="M611.77,317.65c0,153.32-124.29,277.63-277.62,277.63-95.65,0-179.98-48.36-229.91-121.96,3.59,1.86,7.63,2.94,11.87,3.11.83.03,1.66.01,2.49-.02,3.51-.17,6.91-.99,10.13-2.41.61-.26,41.15-18.4,99.27-48.8,13.06,25.1,36.43,58.29,55.53,72.54.16.11.31.23.46.32,2.99,1.97,7.17,3.54,11.64,3.54,3.12,0,6.4-.77,9.46-2.72,10.45-6.63,13.41-23.27,9.28-52.36-1.08-7.63-.47-15.24,1.76-21.96,2.75-8.25,6.85-16.3,12.27-23.91.18-.25.36-.48.57-.71.09-.11.2-.22.31-.32.11-.11.22-.21.33-.31.11-.1.22-.19.34-.28.2-.15.39-.29.6-.42.1-.06.21-.12.32-.18.19-.11.39-.21.6-.3.13-.06.27-.12.41-.17.14-.05.28-.1.42-.14.14-.04.27-.08.41-.11.01,0,.02,0,.03-.01.2-.04.41-.08.62-.12.03,0,.06,0,.1,0,.11-.02.22-.03.34-.04.12-.02.24-.02.35-.03.1,0,.19-.01.29-.01h.11c2.48,0,4.73,1.16,6.15,3.18l.25.36.32.46c10.24,14.74,14.73,32.91,12.66,51.18-2.89,25.54.36,40.24,10.26,46.34,7.02,4.31,14.97,2.57,20.05-.42,29.6-13.06,68.14-103.9,72.33-115.84,3.23-9.24,7.38-27.79,7.55-28.59.66-2.97-.15-6.07-2.18-8.35-.16-.18-.33-.36-.51-.52-.53-.51-1.11-.94-1.73-1.31h0c-.85-6.45-1.22-17.8,3.02-31.76.01,0,.02,0,.02,0,.02-.01.05-.02.07-.03.01,0,.01,0,.02,0,.42-.17.83-.35,1.24-.54.45-.21.88-.43,1.31-.67.43-.23.86-.48,1.27-.74.41-.26.82-.53,1.22-.81.39-.28.77-.56,1.15-.86.02-.01.03-.02.05-.05.03-.03.07-.05.1-.08.32-.26.64-.53.95-.81.04-.03.09-.07.13-.12.33-.3.65-.6.95-.92.35-.34.68-.7,1-1.07.16-.18.32-.37.47-.56.18-.21.35-.42.51-.64.29-.37.56-.74.82-1.12.28-.41.54-.82.79-1.24.26-.43.5-.86.73-1.3.17-.32.33-.65.48-.99.2-.41.38-.83.54-1.26.16-.38.31-.78.44-1.18.01-.01.01-.02.01-.03.08-.21.15-.43.21-.65.16-.51.3-1.02.43-1.54,1.69-6.91,2.94-14.14,3.73-21.54.19-1.8-.13-3.52-.87-5.04,37.6-28.56,69.95-56.78,96.98-84.52,21.86,39.68,34.3,85.26,34.3,133.76Z"/><path class="cls-2" d="M474.67,138.65c0-1.37.29-2.75.9-4.05,3.54-7.48,12.84-21.27,35.44-30.97-36.27-30-80.3-50.97-128.63-59.43-4.37-.78-8.8-1.44-13.25-1.99-11.45-1.46-23.13-2.2-34.98-2.2-153.34,0-277.63,124.31-277.63,277.64,0,47,11.68,91.29,32.31,130.1.11-10.75,6.38-20.99,16.83-25.65.43-.17,42.15-18.89,101.12-49.99.06-.03.12-.07.18-.1.08-.48.12-.67.2-1.15-.12-.11-.24-.23-.35-.35-.12-.12-.23-.24-.33-.36-.32-.37-.61-.77-.87-1.19-.09-.14-.18-.28-.25-.43-.07-.11-.13-.22-.18-.33-.09-.19-.18-.37-.26-.56l-.02-.02c-.11-.28-.21-.57-.3-.85-.06-.15-.1-.32-.13-.49-.08-.34-.15-.7-.19-1.06-.04-.15-.06-.33-.06-.48-.04-.28-.06-.56-.04-.85,0-.24.02-.51.04-.76.02-.28.06-.54.11-.81.1-.57.25-1.15.48-1.7.07-.21.17-.42.26-.63.13-.3.29-.58.46-.87.11-.19.24-.38.38-.57.15-.22.32-.45.51-.66.17-.19.34-.38.51-.57.17-.17.36-.34.55-.51.19-.15.38-.3.58-.45.19-.15.4-.29.61-.42.02-.02.04-.04.06-.04.39-.24.81-.47,1.26-.64l.02-.02c.23-.09.46-.17.68-.24.19-.06.4-.12.61-.18.34-.09.7-.17,1.04-.2.19-.04.36-.06.55-.06.17-.01.35-.02.52-.03.99-13.73-1.74-28.63-5.28-41.37-.05-.04-.1-.07-.15-.11-.35-.25-.7-.5-1.04-.75-1.03-.75-2.01-1.47-2.94-2.16-1.48-1.12-2.83-2.17-4.04-3.13-5.51-4.37-9.18-10.62-10.3-17.57-7.93-48.99,3.13-81.43,4.47-85.08,6.97-21.87,21.13-39.58,37.92-47.38,12.09-5.64,25.06-5.89,37.48-.72,5.66,2.34,10.5,4.77,15.2,7.11,14,6.99,25.17,12.52,49.72,12.27h.19c.53,0,1.06.02,1.59.02,23.53,0,34.42-5.45,48.12-12.29,4.7-2.34,9.56-4.77,15.2-7.11,12.44-5.17,25.4-4.92,37.5.72,15.94,7.42,29.55,23.79,36.84,44.16,11.18-9.11,21.77-18.14,31.72-27.11l-28.22-28.73c-1.79-1.81-2.72-4.21-2.72-6.65ZM424.6,111.02c-10.85,0-19.65-8.82-19.65-19.65s8.8-19.65,19.65-19.65,19.64,8.82,19.64,19.65-8.82,19.65-19.64,19.65Z"/><path class="cls-4" d="M424.59,62.65c-15.84,0-28.72,12.88-28.72,28.72s12.88,28.71,28.72,28.71,28.71-12.88,28.71-28.71-12.88-28.72-28.71-28.72ZM442.37,91.37c0,9.8-7.97,17.77-17.77,17.77s-17.78-7.97-17.78-17.77,7.97-17.78,17.78-17.78,17.77,7.98,17.77,17.78Z"/><path class="cls-4" d="M465.4,0C452.44,0,441.89,10.55,441.89,23.51s10.55,23.51,23.51,23.51,23.51-10.55,23.51-23.51S478.36,0,465.4,0ZM465.4,37.02c-7.45,0-13.51-6.06-13.51-13.51s6.06-13.51,13.51-13.51,13.51,6.06,13.51,13.51-6.06,13.51-13.51,13.51Z"/><path class="cls-4" d="M124.82,255.25c-2.76,0-5-2.24-5-5v-11.73c0-2.76,2.24-5,5-5s5,2.24,5,5v11.73c0,2.76-2.24,5-5,5Z"/><path class="cls-4" d="M124.82,298.38c-2.76,0-5-2.24-5-5v-11.73c0-2.76,2.24-5,5-5s5,2.24,5,5v11.73c0,2.76-2.24,5-5,5Z"/><path class="cls-4" d="M106.1,270.46h-10.86c-2.76,0-5-2.24-5-5s2.24-5,5-5h10.86c2.76,0,5,2.24,5,5s-2.24,5-5,5Z"/><path class="cls-4" d="M154.02,270.46h-10.86c-2.76,0-5-2.24-5-5s2.24-5,5-5h10.86c2.76,0,5,2.24,5,5s-2.24,5-5,5Z"/><path class="cls-4" d="M512.96,422.63c-2.76,0-5-2.24-5-5v-11.73c0-2.76,2.24-5,5-5s5,2.24,5,5v11.73c0,2.76-2.24,5-5,5Z"/><path class="cls-4" d="M512.96,465.76c-2.76,0-5-2.24-5-5v-11.73c0-2.76,2.24-5,5-5s5,2.24,5,5v11.73c0,2.76-2.24,5-5,5Z"/><path class="cls-4" d="M494.24,437.84h-10.86c-2.76,0-5-2.24-5-5s2.24-5,5-5h10.86c2.76,0,5,2.24,5,5s-2.24,5-5,5Z"/><path class="cls-4" d="M542.16,437.84h-10.86c-2.76,0-5-2.24-5-5s2.24-5,5-5h10.86c2.76,0,5,2.24,5,5s-2.24,5-5,5Z"/><path class="cls-4" d="M459.7,343.97h0c.62.38,1.2.81,1.73,1.32-.53-.52-1.11-.96-1.73-1.32ZM340.7,400.67c-1.42-2.02-3.67-3.18-6.15-3.18,2.31.07,5.12,1.7,6.4,3.54l-.25-.36ZM207.16,370.86c-.08.48-.12.67-.2,1.15.31-.18.63-.35.95-.51-.26-.2-.51-.41-.75-.64ZM204,310.14c.93.7,1.91,1.42,2.94,2.16-1.03-.75-2.01-1.47-2.94-2.16Z"/><path class="cls-4" d="M617.12,119.11c-1.11-3.85-3.09-7.43-5.74-10.43-4.9-5.56-11.36-8.86-18.37-9.63l-31.56-32.27-.32-.32c-3.99-3.71-9.56-5.28-14.9-4.17-5.33,1.12-9.8,4.77-11.96,9.77-.53,1.19-1.06,2.48-1.61,3.8-4.24,10.17-9.52,22.8-19.99,27.07-.57.23-1.11.46-1.66.7-22.6,9.7-31.9,23.49-35.44,30.97-.61,1.3-.9,2.68-.9,4.05,0,2.44.93,4.84,2.72,6.65l28.22,28.73c-9.95,8.97-20.54,18-31.72,27.11-7.29-20.37-20.9-36.74-36.84-44.16-12.1-5.64-25.06-5.89-37.5-.72-5.64,2.34-10.5,4.77-15.2,7.11-13.7,6.84-24.59,12.29-48.12,12.29-.53,0-1.06-.02-1.59-.02h-.19c-24.55.25-35.72-5.28-49.72-12.27-4.7-2.34-9.54-4.77-15.2-7.11-12.42-5.17-25.39-4.92-37.48.72-16.79,7.8-30.95,25.51-37.92,47.38-1.34,3.65-12.4,36.09-4.47,85.08,1.12,6.95,4.79,13.2,10.3,17.57,1.21.96,2.56,2.01,4.04,3.13.93.69,1.91,1.41,2.94,2.16.34.25.69.5,1.04.75.05.04.1.07.15.11,18.73,13.33,51.99,31.94,80.78,21.79,5.68-2.01,9.37-2.67,11.66-2.86-1.78,3.03-5.73,7.86-13.04,12.91-9.48,6.57-35.42,20.65-71.16,9.92-.26-.08-.53-.13-.79-.19-.38-.08-.78-.13-1.16-.17-.26-.02-.55-.04-.79-.04-.07,0-.15,0-.22,0-.17,0-.35.02-.52.03-.19,0-.36.02-.55.06-.34.03-.7.11-1.04.2-.21.06-.42.12-.61.18-.22.07-.45.15-.68.24l-.02.02c-.45.17-.87.4-1.26.64-.02,0-.04.02-.06.04-.21.13-.42.27-.61.42-.2.15-.39.3-.58.45-.19.17-.38.34-.55.51-.17.19-.34.38-.51.57-.19.21-.36.44-.51.66-.14.19-.27.38-.38.57-.17.29-.33.57-.46.87-.09.21-.19.42-.26.63-.23.55-.38,1.13-.48,1.7-.05.27-.09.53-.11.81-.02.25-.04.52-.04.76-.02.29,0,.57.04.85,0,.15.02.33.06.48.04.36.11.72.19,1.06.03.17.07.34.13.49.09.28.19.57.3.85l.02.02c.08.19.17.37.26.56.05.11.11.22.18.33.07.15.16.29.25.43.26.42.55.82.87,1.19.1.12.21.24.33.36.11.12.23.24.35.35.24.23.49.44.75.64-.32.16-.64.33-.95.51-.06.03-.12.07-.18.1-58.97,31.1-100.69,49.82-101.12,49.99-10.45,4.66-16.72,14.9-16.83,25.65-.08,3.95.72,7.99,2.42,11.83,2.71,6.09,7.33,10.86,12.99,13.74,3.59,1.86,7.63,2.94,11.87,3.11.83.03,1.66.01,2.49-.02,3.51-.17,6.91-.99,10.13-2.41.61-.26,41.15-18.4,99.27-48.8,13.06,25.1,36.43,58.29,55.53,72.54.16.11.31.23.46.32,2.99,1.97,7.17,3.54,11.64,3.54,3.12,0,6.4-.77,9.46-2.72,10.45-6.63,13.41-23.27,9.28-52.36-1.08-7.63-.47-15.24,1.76-21.96,2.75-8.25,6.85-16.3,12.27-23.91.18-.25.36-.48.57-.71.09-.11.2-.22.31-.32.11-.11.22-.22.33-.31.11-.1.23-.2.34-.28.2-.15.39-.29.6-.42.1-.06.21-.12.32-.18.19-.11.39-.21.6-.3.13-.06.27-.12.41-.17.14-.05.28-.1.42-.14.14-.04.27-.08.41-.11.01,0,.02,0,.03-.01.2-.04.41-.08.62-.12.03,0,.06,0,.1,0,.11-.02.22-.03.34-.04.12-.02.24-.02.35-.03.1,0,.19-.01.29-.01h.11c2.48,0,4.73,1.16,6.15,3.18l.25.36.32.46c10.24,14.74,14.73,32.91,12.66,51.18-2.89,25.54.36,40.24,10.26,46.34,7.02,4.31,14.97,2.57,20.05-.42,29.6-13.06,68.14-103.9,72.33-115.84,3.23-9.24,7.38-27.79,7.55-28.59.66-2.97-.15-6.07-2.18-8.35-.16-.18-.33-.36-.51-.52-.53-.51-1.11-.94-1.73-1.31h0c-1.72-1.04-3.75-1.5-5.8-1.27-26.48,2.74-67.33-16.01-72.01-57.22-.04-.38-.11-.97.89-1.31,1-.36,1.31.13,1.51.44,14.05,21.86,37.92,31.7,70.91,29.34,2.64-.19,5.17-.79,7.52-1.74.01,0,.02,0,.02,0,.02-.01.05-.02.07-.03.01,0,.01,0,.02,0,.42-.17.83-.35,1.24-.54.45-.21.88-.43,1.31-.67.43-.23.86-.48,1.27-.74.41-.26.82-.53,1.22-.81.39-.28.77-.56,1.15-.86.02-.01.03-.02.05-.05.03-.03.07-.05.1-.08.32-.26.64-.53.95-.81.04-.03.09-.07.13-.12.33-.3.65-.6.95-.92.35-.34.68-.7,1-1.07.16-.18.32-.37.47-.56.18-.21.35-.42.51-.64.29-.37.56-.74.82-1.12.28-.41.54-.82.79-1.24.26-.43.5-.86.73-1.3.17-.32.33-.65.48-.99.19-.41.37-.83.54-1.26.16-.38.31-.78.44-1.18.01-.01.01-.02.01-.03.08-.21.15-.43.21-.65.16-.51.3-1.02.43-1.54,1.69-6.91,2.94-14.14,3.73-21.54.19-1.8-.13-3.52-.87-5.04,37.6-28.56,69.95-56.78,96.98-84.52,12.7-13.04,24.23-25.99,34.54-38.8,5.85-7.24,7.77-16.73,5.11-25.98ZM547.03,86.05c.74-.74,1.61-1.27,2.54-1.57.75-.29,1.57-.4,2.36-.36,1.63.04,3.22.7,4.47,1.93l13.91,13.93c1.4,1.4,2.05,3.26,1.93,5.09-.09,1.55-.75,3.09-1.93,4.28-1.1,1.12-2.52,1.74-3.97,1.87v.02c-.23.02-.48.04-.7.04-.34,0-.68-.02-1.03-.07-1.34-.21-2.63-.84-3.67-1.86l-13.91-13.93c-.63-.63-1.1-1.35-1.42-2.1-1.02-2.41-.55-5.3,1.42-7.27ZM526.79,116.75c.06-1.59.7-3.18,1.93-4.41,1.5-1.49,3.54-2.14,5.49-1.89,1.42.17,2.81.79,3.88,1.89l10.36,10.36c1,1,1.61,2.25,1.83,3.55.27,1.58-.03,3.2-.88,4.6-.27.44-.57.84-.95,1.22-.21.2-.44.39-.66.56,0,0,0,.02-.02.02-1.18.89-2.6,1.35-4.02,1.35-.26,0-.53-.02-.79-.06-.27-.02-.53-.08-.8-.13-1.13-.29-2.21-.87-3.08-1.74l-10.36-10.36c-1.11-1.1-1.74-2.5-1.89-3.94-.06-.34-.06-.68-.04-1.02ZM499.97,141.62c-.43-.43-.79-.92-1.08-1.43-1.04-1.82-1.13-4.04-.26-5.93-.02-.02-.02-.04.02-.06.3-.7.75-1.36,1.32-1.93.66-.66,1.42-1.15,2.25-1.47,0-.02.04-.02.04-.02,2.37-.93,5.17-.42,7.08,1.49l16.13,16.13c.68.68,1.19,1.48,1.51,2.33.34.93.5,1.89.4,2.88-.09,1.51-.74,3.01-1.91,4.16-1.21,1.23-2.78,1.88-4.37,1.93-.1.02-.21.02-.31.02-.7,0-1.4-.11-2.06-.32-.74-.25-1.44-.63-2.06-1.12-.02-.02-.04-.04-.06-.05-.17-.14-.32-.29-.49-.46l-16.15-16.15ZM121.05,456.7c-1.1.49-2.24.74-3.37.8-.29.02-.57.02-.84.02-3.48-.16-6.77-2.22-8.29-5.63-2.12-4.77.02-10.37,4.81-12.49,1.21-.53,53.82-28.15,117.72-62.3,3.62.36,7.18.55,10.66.55,34.53,0,62.33-17.24,73.44-33.29,4.66-6.7,5.78-12.21,5.44-16.38,14.02-8.16,31.21-17.79,45.26-26.38,1.91,6.47,4.56,12.43,7.8,17.85-21.32,13.59-43.77,27.24-67.35,40.96-100.14,58.24-184.45,95.91-185.28,96.29ZM385.28,334.49c16.15,16.53,38.31,25.5,57.62,27.11-1.31,5.26-2.88,11.11-4.2,14.9-9.73,27.82-45.15,98.17-62.24,104.83-.72.28-1.08.43-1.69.85-.22.13-.55.27-.83.36-.93-1.61-3.44-7.99-1.21-27.73,2.59-22.83-3.05-45.6-15.88-64.11l-.7-.99c-2.46-3.48-5.72-6.26-9.43-8.18-3.71-1.93-7.87-2.97-12.17-2.97-8.58,0-16.66,4.17-21.6,11.15-6.49,9.14-11.45,18.85-14.78,28.89-3.15,9.48-4.04,20.06-2.54,30.57,3.43,24.19.53,31.61-.49,33.37-.23-.08-.49-.19-.72-.28-16.02-12.21-37.78-43.05-49.69-65.9,22.03-11.75,46.09-25.04,71.12-39.6,24.32-14.16,47.47-28.24,69.43-42.27ZM387.53,265.52c-3.56-.74-7.38-.5-11.11.83-6.8,2.42-11.51,7.85-12.99,14.42-13.17,8.54-35.6,22.6-53.43,33.57-6.55-2.28-15.71-1.37-27.37,2.76-25.46,8.95-60.69-16.79-70.89-24.91-1.82-1.44-3.01-3.49-3.39-5.78-7.39-45.58,3.48-75.33,3.57-75.62.06-.17.14-.34.18-.51,5.3-16.75,15.99-30.59,27.93-36.15,7.26-3.37,14.73-3.51,22.25-.4,5.03,2.1,9.59,4.37,13.99,6.57,14.32,7.15,29.17,14.59,58.28,14.27,29.15.3,43.93-7.12,58.26-14.27,4.41-2.2,8.96-4.47,13.99-6.57,7.52-3.11,14.99-2.97,22.26.4,11.93,5.56,22.62,19.4,27.92,36.15.36,1.14.91,2.16,1.63,3.05-21.73,17-45.56,34.26-71.4,51.71l.32.48ZM459.25,290.52c-.6,2.5-2.83,4.36-5.41,4.55-3.56.26-6.95.35-10.18.28,5.83-4.09,11.54-8.2,17.17-12.3-.46,2.53-.99,5.03-1.58,7.47ZM597.29,133.22c-9.01,11.19-18.97,22.49-29.87,33.86-38.32,39.98-88.21,81.1-149.3,122.99-6.28-2.92-11.49-7.08-15.65-12.5,56.41-38.4,111.21-81.37,153.87-126.39,9.37-9.86,18.14-19.8,26.2-29.83,1.95-2.42,4.85-3.63,7.74-3.52,1.97.08,3.92.76,5.57,2.08,4.07,3.28,4.71,9.24,1.44,13.31Z"/><path class="cls-4" d="M416.07,224.78c-28.96,21.81-57,28.56-80.64,28.56-12.49,0-23.76-1.89-33.3-4.45-29.61-7.97-48.72-23.76-49.52-24.42-4.01-3.35-4.54-9.33-1.17-13.33,3.35-4.01,9.29-4.54,13.31-1.21,2.73,2.27,67.27,54.42,139.94-.28,4.16-3.14,10.11-2.31,13.25,1.87,3.14,4.16,2.31,10.11-1.87,13.25Z"/><path class="cls-4" d="M207.91,371.5c-.32.16-.64.33-.95.51-.06.03-.12.07-.18.1l-1.86-4.47c.08.19.17.37.26.56.05.11.11.22.18.33.07.15.16.29.25.43.26.42.55.82.87,1.19.1.12.21.24.33.36.11.12.23.24.35.35.24.23.49.44.75.64Z"/><path class="cls-4" d="M795.59,473.25h-10.48v-73.35h51.77v9.12h-41.29v64.24ZM794.54,434.58h37.83v9.01h-37.83v-9.01Z"/><path class="cls-4" d="M861.5,473.25l33.22-73.35h10.37l33.32,73.35h-11l-29.66-67.49h4.19l-29.66,67.49h-10.79ZM875.65,454.91l2.83-8.38h41.29l3.04,8.38h-47.16Z"/><path class="cls-4" d="M970.28,473.25v-73.35h8.59l32.91,55.44h-4.61l32.49-55.44h8.59l.11,73.35h-10.06l-.1-57.53h2.41l-28.92,48.62h-4.82l-29.13-48.62h2.62v57.53h-10.06Z"/><path class="cls-4" d="M1091.31,473.25v-73.35h10.48v73.35h-10.48Z"/><path class="cls-4" d="M1144.75,473.25v-73.35h10.48v64.24h39.72v9.12h-50.2Z"/><path class="cls-4" d="M1245.67,473.25v-28.08l2.41,6.5-31.54-51.77h11.21l26.51,43.7h-6.08l26.62-43.7h10.38l-31.44,51.77,2.3-6.5v28.08h-10.37Z"/><path class="cls-4" d="M1365.86,473.25v-73.35h30.91c7.82,0,14.72,1.54,20.7,4.61,5.97,3.07,10.62,7.37,13.94,12.89,3.32,5.52,4.98,11.91,4.98,19.18s-1.66,13.66-4.98,19.18c-3.32,5.52-7.96,9.82-13.94,12.89-5.97,3.07-12.87,4.61-20.7,4.61h-30.91ZM1376.34,464.13h19.81c6.08,0,11.33-1.15,15.77-3.46,4.44-2.31,7.88-5.54,10.32-9.69,2.44-4.16,3.67-8.96,3.67-14.41s-1.22-10.34-3.67-14.46c-2.45-4.12-5.89-7.33-10.32-9.64-4.44-2.3-9.69-3.46-15.77-3.46h-19.81v55.12Z"/><path class="cls-4" d="M1483.85,464.13h42.75v9.12h-53.23v-73.35h51.77v9.12h-41.29v55.12ZM1482.91,431.54h37.73v8.91h-37.73v-8.91Z"/><path class="cls-4" d="M1564.54,473.25v-73.35h8.59l48.52,60.26h-4.51v-60.26h10.48v73.35h-8.59l-48.52-60.25h4.51v60.25h-10.48Z"/><path class="cls-4" d="M1685.16,473.25v-64.24h-25.15v-9.12h60.67v9.12h-25.15v64.24h-10.37Z"/><path class="cls-4" d="M1753.06,473.25v-73.35h10.48v73.35h-10.48Z"/><path class="cls-4" d="M1827.88,474.09c-5.59,0-10.93-.85-16.03-2.57-5.1-1.71-9.12-3.93-12.05-6.65l3.88-8.17c2.79,2.45,6.36,4.47,10.69,6.08,4.33,1.61,8.84,2.41,13.52,2.41,4.26,0,7.72-.49,10.37-1.47,2.65-.98,4.61-2.32,5.87-4.04,1.26-1.71,1.89-3.65,1.89-5.82,0-2.51-.82-4.54-2.46-6.08-1.64-1.54-3.77-2.78-6.39-3.72-2.62-.94-5.5-1.76-8.64-2.46-3.14-.7-6.31-1.52-9.48-2.46-3.18-.94-6.08-2.15-8.7-3.62s-4.73-3.44-6.34-5.92c-1.61-2.48-2.41-5.68-2.41-9.59s1-7.25,2.99-10.43c1.99-3.18,5.06-5.73,9.22-7.65,4.16-1.92,9.45-2.88,15.88-2.88,4.26,0,8.49.56,12.68,1.68,4.19,1.12,7.82,2.72,10.9,4.82l-3.46,8.38c-3.14-2.1-6.46-3.62-9.96-4.56-3.49-.94-6.88-1.42-10.17-1.42-4.12,0-7.51.52-10.17,1.57-2.66,1.05-4.59,2.45-5.82,4.19-1.22,1.75-1.83,3.7-1.83,5.87,0,2.58.82,4.65,2.46,6.18,1.64,1.54,3.77,2.76,6.39,3.67,2.62.91,5.5,1.73,8.65,2.46s6.3,1.55,9.48,2.46c3.18.91,6.08,2.1,8.7,3.56,2.62,1.47,4.73,3.42,6.34,5.87,1.61,2.45,2.41,5.59,2.41,9.43s-1.01,7.14-3.04,10.32c-2.03,3.18-5.15,5.73-9.38,7.65-4.23,1.92-9.55,2.88-15.98,2.88Z"/><path class="cls-4" d="M1907.11,473.25v-64.24h-25.15v-9.12h60.67v9.12h-25.15v64.24h-10.37Z"/><path class="cls-4" d="M1975.01,473.25v-73.35h28.61c6.43,0,11.91,1.01,16.45,3.04,4.54,2.03,8.03,4.96,10.48,8.8,2.44,3.84,3.67,8.42,3.67,13.73s-1.22,9.87-3.67,13.68c-2.45,3.81-5.94,6.72-10.48,8.75-4.54,2.03-10.03,3.04-16.45,3.04h-22.84l4.72-4.82v27.14h-10.48ZM1985.49,447.16l-4.72-5.13h22.53c6.71,0,11.79-1.45,15.25-4.35,3.46-2.9,5.19-6.97,5.19-12.21s-1.73-9.29-5.19-12.15-8.54-4.3-15.25-4.3h-22.53l4.72-5.24v43.38ZM2024.05,473.25l-18.65-26.62h11.21l18.86,26.62h-11.42Z"/><path class="cls-4" d="M2089.86,473.25v-28.08l2.41,6.5-31.54-51.77h11.21l26.51,43.7h-6.08l26.62-43.7h10.38l-31.44,51.77,2.3-6.5v28.08h-10.37Z"/><path class="cls-4" d="M832.25,320.91c-11.26,0-22.01-1.62-32.24-4.84-10.23-3.23-18.44-7.38-24.62-12.46l9.27-20.81c5.77,4.53,12.91,8.31,21.43,11.33,8.51,3.02,17.24,4.53,26.17,4.53,7.55,0,13.67-.82,18.34-2.47,4.67-1.65,8.1-3.88,10.3-6.7,2.2-2.81,3.3-6.01,3.3-9.58,0-4.39-1.58-7.93-4.74-10.61-3.16-2.68-7.25-4.81-12.26-6.39-5.02-1.58-10.58-3.02-16.69-4.33-6.11-1.3-12.23-2.92-18.34-4.84-6.11-1.92-11.71-4.36-16.79-7.31-5.08-2.95-9.17-6.9-12.26-11.85-3.09-4.95-4.64-11.26-4.64-18.96s2.09-15,6.28-21.53c4.19-6.52,10.58-11.74,19.16-15.66,8.58-3.92,19.47-5.87,32.66-5.87,8.65,0,17.24,1.1,25.75,3.3,8.51,2.2,15.93,5.36,22.25,9.48l-8.45,20.81c-6.46-3.84-13.12-6.7-19.98-8.55-6.87-1.85-13.46-2.78-19.78-2.78-7.28,0-13.26.89-17.92,2.68-4.67,1.79-8.07,4.16-10.2,7.11-2.13,2.96-3.19,6.21-3.19,9.79,0,4.4,1.54,7.93,4.64,10.61,3.09,2.68,7.14,4.77,12.16,6.28,5.01,1.51,10.61,2.96,16.79,4.33,6.18,1.37,12.29,2.99,18.34,4.84,6.04,1.85,11.6,4.26,16.69,7.21,5.08,2.96,9.17,6.87,12.26,11.74,3.09,4.88,4.64,11.09,4.64,18.65s-2.1,14.8-6.28,21.32c-4.19,6.53-10.61,11.74-19.26,15.66s-19.57,5.87-32.76,5.87Z"/><path class="cls-4" d="M978.94,318.85v-144.22h22.04l63.05,105.28h-11.54l62.02-105.28h22.04l.41,144.22h-25.75v-104.46h5.15l-52.33,88.18h-12.16l-53.57-88.18h6.18v104.46h-25.55Z"/><path class="cls-4" d="M1237.51,318.85v-144.22h26.78v144.22h-26.78Z"/><path class="cls-4" d="M1365.04,318.85v-144.22h26.78v121.56h75.41v22.66h-102.19Z"/><path class="cls-4" d="M1550.26,318.85v-144.22h26.78v144.22h-26.78Z"/><path class="cls-4" d="M1677.79,318.85v-144.22h22.04l90.45,111.26h-10.92v-111.26h26.37v144.22h-22.05l-90.24-111.26h10.92v111.26h-26.58Z"/><path class="cls-4" d="M1933.27,296.19h81.38v22.66h-108.17v-144.22h105.28v22.66h-78.5v98.89ZM1931.21,234.58h71.7v22.04h-71.7v-22.04Z"/></svg>