<?xml version="1.0" encoding="UTF-8"?><svg id="Layer_1" xmlns="http://www.w3.org/2000/svg" viewBox="0 0 1455.26 1554.08"><defs><style>.cls-1{fill:#fff;}.cls-2{fill:#bfd9ea;}.cls-3{fill:none;}.cls-4{fill:#1e273a;}</style></defs><path class="cls-1" d="M71.48,1553.25h-10.48v-73.35h51.77v9.12h-41.29v64.24ZM70.43,1514.58h37.83v9.01h-37.83v-9.01Z"/><path class="cls-1" d="M137.4,1553.25l33.22-73.35h10.37l33.32,73.35h-11l-29.66-67.49h4.19l-29.66,67.49h-10.79ZM151.54,1534.91l2.83-8.38h41.29l3.04,8.38h-47.16Z"/><path class="cls-1" d="M246.17,1553.25v-73.35h8.59l32.91,55.44h-4.61l32.49-55.44h8.59l.11,73.35h-10.06l-.1-57.53h2.41l-28.92,48.62h-4.82l-29.13-48.62h2.62v57.53h-10.06Z"/><path class="cls-1" d="M367.2,1553.25v-73.35h10.48v73.35h-10.48Z"/><path class="cls-1" d="M420.65,1553.25v-73.35h10.48v64.24h39.72v9.12h-50.2Z"/><path class="cls-1" d="M521.56,1553.25v-28.08l2.41,6.5-31.54-51.77h11.21l26.51,43.7h-6.08l26.62-43.7h10.38l-31.44,51.77,2.3-6.5v28.08h-10.37Z"/><path class="cls-1" d="M641.75,1553.25v-73.35h30.91c7.82,0,14.72,1.54,20.7,4.61,5.97,3.08,10.62,7.37,13.94,12.89,3.32,5.52,4.98,11.91,4.98,19.18s-1.66,13.66-4.98,19.18c-3.32,5.52-7.96,9.82-13.94,12.89-5.97,3.07-12.87,4.61-20.7,4.61h-30.91ZM652.23,1544.13h19.81c6.08,0,11.33-1.15,15.77-3.46,4.44-2.31,7.88-5.54,10.32-9.69,2.44-4.16,3.67-8.96,3.67-14.41s-1.22-10.34-3.67-14.46c-2.45-4.12-5.89-7.33-10.32-9.64-4.44-2.31-9.69-3.46-15.77-3.46h-19.81v55.12Z"/><path class="cls-1" d="M759.75,1544.13h42.75v9.12h-53.23v-73.35h51.77v9.12h-41.29v55.12ZM758.8,1511.54h37.73v8.91h-37.73v-8.91Z"/><path class="cls-1" d="M840.44,1553.25v-73.35h8.59l48.52,60.26h-4.51v-60.26h10.48v73.35h-8.59l-48.52-60.25h4.51v60.25h-10.48Z"/><path class="cls-1" d="M961.05,1553.25v-64.24h-25.15v-9.12h60.67v9.12h-25.15v64.24h-10.37Z"/><path class="cls-1" d="M1028.96,1553.25v-73.35h10.48v73.35h-10.48Z"/><path class="cls-1" d="M1103.78,1554.08c-5.59,0-10.93-.85-16.03-2.57-5.1-1.71-9.12-3.93-12.05-6.65l3.88-8.17c2.79,2.45,6.36,4.47,10.69,6.08,4.33,1.61,8.84,2.41,13.52,2.41,4.26,0,7.72-.49,10.37-1.47,2.65-.98,4.61-2.32,5.87-4.03,1.26-1.71,1.89-3.65,1.89-5.82,0-2.51-.82-4.54-2.46-6.08-1.64-1.54-3.77-2.78-6.39-3.72-2.62-.94-5.5-1.76-8.64-2.46-3.14-.7-6.31-1.52-9.48-2.46-3.18-.94-6.08-2.15-8.7-3.62-2.62-1.47-4.73-3.44-6.34-5.92-1.61-2.48-2.41-5.68-2.41-9.59s1-7.25,2.99-10.43c1.99-3.18,5.06-5.73,9.22-7.65,4.16-1.92,9.45-2.88,15.88-2.88,4.26,0,8.49.56,12.68,1.68,4.19,1.12,7.82,2.72,10.9,4.82l-3.46,8.38c-3.14-2.1-6.46-3.62-9.96-4.56-3.49-.94-6.88-1.42-10.17-1.42-4.12,0-7.51.52-10.17,1.57-2.66,1.05-4.59,2.45-5.82,4.19-1.22,1.75-1.83,3.7-1.83,5.87,0,2.58.82,4.65,2.46,6.18,1.64,1.54,3.77,2.76,6.39,3.67,2.62.91,5.5,1.73,8.65,2.46,3.14.73,6.3,1.55,9.48,2.46,3.18.91,6.08,2.1,8.7,3.56,2.62,1.47,4.73,3.42,6.34,5.87,1.61,2.45,2.41,5.59,2.41,9.43s-1.01,7.14-3.04,10.32c-2.03,3.18-5.15,5.73-9.38,7.65-4.23,1.92-9.55,2.88-15.98,2.88Z"/><path class="cls-1" d="M1183,1553.25v-64.24h-25.15v-9.12h60.67v9.12h-25.15v64.24h-10.37Z"/><path class="cls-1" d="M1250.9,1553.25v-73.35h28.61c6.43,0,11.91,1.01,16.45,3.04,4.54,2.03,8.03,4.96,10.48,8.8,2.44,3.84,3.67,8.42,3.67,13.73s-1.22,9.87-3.67,13.68c-2.45,3.81-5.94,6.72-10.48,8.75-4.54,2.03-10.03,3.04-16.45,3.04h-22.84l4.72-4.82v27.14h-10.48ZM1261.38,1527.15l-4.72-5.13h22.53c6.71,0,11.79-1.45,15.25-4.35,3.46-2.9,5.19-6.97,5.19-12.21s-1.73-9.29-5.19-12.16c-3.46-2.86-8.54-4.3-15.25-4.3h-22.53l4.72-5.24v43.38ZM1299.95,1553.25l-18.65-26.62h11.21l18.86,26.62h-11.42Z"/><path class="cls-1" d="M1365.75,1553.25v-28.08l2.41,6.5-31.54-51.77h11.21l26.51,43.7h-6.08l26.62-43.7h10.38l-31.44,51.77,2.3-6.5v28.08h-10.37Z"/><path class="cls-1" d="M163.21,1400.91c-11.26,0-22.01-1.62-32.24-4.84-10.23-3.23-18.44-7.38-24.62-12.46l9.27-20.81c5.77,4.53,12.91,8.31,21.43,11.33,8.51,3.02,17.24,4.53,26.17,4.53,7.55,0,13.67-.82,18.34-2.47,4.67-1.65,8.1-3.88,10.3-6.7,2.2-2.81,3.3-6.01,3.3-9.58,0-4.39-1.58-7.93-4.74-10.61-3.16-2.68-7.25-4.81-12.26-6.39-5.02-1.58-10.58-3.02-16.69-4.33-6.11-1.3-12.23-2.92-18.34-4.84-6.11-1.92-11.71-4.36-16.79-7.31-5.08-2.95-9.17-6.9-12.26-11.85-3.09-4.95-4.64-11.26-4.64-18.96s2.09-15,6.28-21.53c4.19-6.52,10.58-11.74,19.16-15.66,8.58-3.92,19.47-5.87,32.66-5.87,8.65,0,17.24,1.1,25.75,3.3,8.51,2.2,15.93,5.36,22.25,9.48l-8.45,20.81c-6.46-3.84-13.12-6.7-19.98-8.55-6.87-1.85-13.46-2.78-19.78-2.78-7.28,0-13.26.89-17.92,2.68-4.67,1.79-8.07,4.16-10.2,7.11-2.13,2.96-3.19,6.22-3.19,9.79,0,4.4,1.54,7.93,4.64,10.61,3.09,2.68,7.14,4.77,12.16,6.28,5.01,1.51,10.61,2.96,16.79,4.33,6.18,1.37,12.29,2.99,18.34,4.84,6.04,1.85,11.6,4.26,16.69,7.21,5.08,2.96,9.17,6.87,12.26,11.74,3.09,4.88,4.64,11.09,4.64,18.65s-2.1,14.8-6.28,21.32c-4.19,6.53-10.61,11.74-19.26,15.66-8.65,3.91-19.57,5.87-32.76,5.87Z"/><path class="cls-1" d="M309.9,1398.85v-144.22h22.04l63.05,105.28h-11.54l62.02-105.28h22.04l.41,144.22h-25.75v-104.46h5.15l-52.33,88.18h-12.16l-53.57-88.18h6.18v104.46h-25.55Z"/><path class="cls-1" d="M568.47,1398.85v-144.22h26.78v144.22h-26.78Z"/><path class="cls-1" d="M696,1398.85v-144.22h26.78v121.56h75.41v22.66h-102.19Z"/><path class="cls-1" d="M881.22,1398.85v-144.22h26.78v144.22h-26.78Z"/><path class="cls-1" d="M1008.75,1398.85v-144.22h22.04l90.45,111.26h-10.92v-111.26h26.37v144.22h-22.05l-90.24-111.26h10.92v111.26h-26.58Z"/><path class="cls-1" d="M1264.23,1376.18h81.38v22.66h-108.17v-144.22h105.28v22.66h-78.5v98.9ZM1262.17,1314.58h71.7v22.04h-71.7v-22.04Z"/><ellipse class="cls-2" cx="727.63" cy="574.72" rx="495.43" ry="495.45"/><rect class="cls-3" x="392.42" y="202.65" width="670.44" height="759.89"/><path class="cls-1" d="M882.48,258.12c15.29,0,27.74-12.45,27.74-27.74s-12.45-27.74-27.74-27.74-27.74,12.45-27.74,27.74,12.45,27.74,27.74,27.74Z"/><path class="cls-1" d="M1061.47,343.17c-1.31-4.54-3.65-8.77-6.77-12.3-5.78-6.56-13.4-10.45-21.67-11.36l-37.23-38.07-.38-.38c-4.71-4.38-11.28-6.23-17.58-4.92-6.29,1.32-11.56,5.63-14.11,11.53-.63,1.4-1.25,2.93-1.9,4.48-5,12-11.23,26.9-23.58,31.94-.67.27-1.31.54-1.96.83-42.79-35.39-94.73-60.13-151.75-70.11-5.16-.92-10.38-1.7-15.63-2.35-13.51-1.72-27.29-2.6-41.27-2.6-180.9,0-327.53,146.65-327.53,327.55,0,55.45,13.78,107.7,38.12,153.49-.09,4.66.85,9.43,2.86,13.96,3.2,7.19,8.65,12.81,15.32,16.21,58.9,86.83,158.39,143.88,271.24,143.88,180.89,0,327.52-146.65,327.52-327.53,0-57.22-14.68-110.99-40.47-157.8,14.98-15.38,28.59-30.66,40.75-45.77,6.9-8.54,9.17-19.74,6.03-30.65Z"/><path class="cls-2" d="M1014.69,419.59c-31.89,32.73-70.05,66.02-114.41,99.71.87,1.79,1.25,3.82,1.03,5.95-.93,8.73-2.41,17.26-4.4,25.41-.15.61-.32,1.22-.51,1.82-.07.26-.15.52-.25.77,0,.01,0,.02-.01.04-.15.47-.33.94-.52,1.39-.19.51-.4,1-.64,1.49-.18.4-.37.79-.57,1.17-.27.52-.55,1.03-.86,1.53-.29.5-.6.98-.93,1.46-.31.45-.63.88-.97,1.32-.19.26-.39.51-.6.76-.18.22-.37.45-.55.66-.38.44-.77.86-1.18,1.26-.35.38-.73.73-1.12,1.09-.05.06-.11.11-.15.14-.37.33-.74.65-1.12.96-.04.04-.08.06-.12.09-.02.04-.04.05-.06.06-.45.35-.9.68-1.36,1.01-.47.33-.96.65-1.44.96s-.99.6-1.5.87c-.51.28-1.01.54-1.55.79-.48.22-.97.44-1.46.64-.01,0-.01.01-.02.01-.02.01-.06.02-.08.04,0,0-.01.01-.02.01-5,16.47-4.57,29.86-3.56,37.46h0c.73.45,1.42.96,2.04,1.56.21.19.41.4.6.61,2.39,2.69,3.35,6.35,2.57,9.85-.2.94-5.1,22.83-8.91,33.73-4.94,14.09-50.41,121.25-85.33,136.66-5.99,3.53-15.37,5.58-23.65.5-11.68-7.2-15.51-24.54-12.1-54.67,2.44-21.55-2.85-42.99-14.94-60.38l-.38-.54-.29-.42c-1.68-2.38-4.33-3.75-7.26-3.75h-.13c-.12,0-.22.01-.34.01-.13.01-.27.01-.41.04-.14.01-.27.02-.4.05-.05,0-.08.01-.12.01-.25.05-.5.09-.73.14-.01.01-.02.01-.04.01-.17.03-.32.08-.48.13-.17.05-.33.11-.5.17-.16.06-.33.13-.48.2-.25.11-.48.22-.71.35-.13.07-.26.14-.38.21-.25.15-.47.32-.71.5-.14.11-.27.21-.4.33-.13.12-.26.24-.39.37-.13.12-.26.25-.37.38-.25.27-.46.54-.67.84-6.39,8.98-11.23,18.47-14.48,28.21-2.63,7.93-3.35,16.91-2.08,25.91,4.87,34.32,1.38,53.95-10.95,61.77-3.61,2.3-7.48,3.21-11.16,3.21-5.27,0-10.2-1.85-13.73-4.18-.18-.11-.35-.25-.54-.38-22.53-16.81-50.1-55.97-65.51-85.58-68.57,35.86-116.39,57.26-117.11,57.57-3.8,1.68-7.81,2.64-11.95,2.84-.98.04-1.96.06-2.94.02-5-.2-9.77-1.47-14-3.67,58.9,86.83,158.39,143.88,271.24,143.88,180.89,0,327.52-146.65,327.52-327.53,0-57.22-14.68-110.99-40.47-157.8Z"/><path class="cls-2" d="M577.37,641.65c.07-.04.14-.08.21-.12.09-.57.14-.79.24-1.36-.14-.13-.28-.27-.41-.41-.14-.14-.27-.28-.39-.42-.38-.44-.72-.91-1.03-1.4-.11-.17-.21-.33-.29-.51-.08-.13-.15-.26-.21-.39-.11-.22-.21-.44-.31-.66l-.02-.02c-.13-.33-.25-.67-.35-1-.07-.18-.12-.38-.15-.58-.09-.4-.18-.83-.22-1.25-.05-.18-.07-.39-.07-.57-.05-.33-.07-.66-.05-1,0-.28.02-.6.05-.9.02-.33.07-.64.13-.96.12-.67.29-1.36.57-2.01.08-.25.2-.5.31-.74.15-.35.34-.68.54-1.03.13-.22.28-.45.45-.67.18-.26.38-.53.6-.78.2-.22.4-.45.6-.67.2-.2.42-.4.65-.6.22-.18.45-.35.68-.53.22-.18.47-.34.72-.5.02-.02.05-.05.07-.05.46-.28.96-.55,1.49-.76l.02-.02c.27-.11.54-.2.8-.28.22-.07.47-.14.72-.21.4-.11.83-.2,1.23-.24.22-.05.42-.07.65-.07.2-.01.41-.02.61-.04,1.17-16.2-2.05-33.78-6.23-48.81-.06-.05-.12-.08-.18-.13-.41-.29-.83-.59-1.23-.88-1.22-.88-2.37-1.73-3.47-2.55-1.75-1.32-3.34-2.56-4.77-3.69-6.5-5.16-10.83-12.53-12.15-20.73-9.36-57.8,3.69-96.07,5.27-100.37,8.22-25.8,24.93-46.69,44.74-55.9,14.26-6.65,29.56-6.95,44.22-.85,6.68,2.76,12.39,5.63,17.93,8.39,16.52,8.25,29.69,14.77,58.66,14.48h.22c.63,0,1.25.02,1.88.02,27.76,0,40.61-6.43,56.77-14.5,5.55-2.76,11.28-5.63,17.93-8.39,14.68-6.1,29.97-5.8,44.24.85,18.81,8.75,34.86,28.07,43.46,52.1,13.19-10.75,25.68-21.4,37.42-31.98l-33.29-33.89c-2.11-2.14-3.21-4.97-3.21-7.85,0-1.62.34-3.24,1.06-4.78,4.18-8.82,15.15-25.09,41.81-36.54-42.79-35.39-94.73-60.13-151.75-70.11-5.16-.92-10.38-1.7-15.63-2.35-13.51-1.72-27.29-2.6-41.27-2.6-180.9,0-327.53,146.65-327.53,327.55,0,55.45,13.78,107.7,38.12,153.49.13-12.68,7.53-24.76,19.86-30.26.51-.2,49.73-22.29,119.3-58.98ZM834.35,287.26c12.76,0,23.17,10.41,23.17,23.18s-10.41,23.18-23.17,23.18-23.18-10.41-23.18-23.18,10.38-23.18,23.18-23.18Z"/><path class="cls-4" d="M834.34,276.56c-18.69,0-33.89,15.2-33.89,33.89s15.2,33.88,33.89,33.88,33.88-15.2,33.88-33.88-15.2-33.89-33.88-33.89ZM855.31,310.45c0,11.56-9.4,20.97-20.97,20.97s-20.98-9.4-20.98-20.97,9.4-20.98,20.98-20.98,20.97,9.41,20.97,20.98Z"/><path class="cls-4" d="M882.48,202.65c-15.29,0-27.74,12.45-27.74,27.74s12.45,27.74,27.74,27.74,27.74-12.45,27.74-27.74-12.45-27.74-27.74-27.74ZM882.48,246.32c-8.79,0-15.94-7.15-15.94-15.94s7.15-15.94,15.94-15.94,15.94,7.15,15.94,15.94-7.15,15.94-15.94,15.94Z"/><path class="cls-4" d="M480.69,503.79c-3.26,0-5.9-2.64-5.9-5.9v-13.84c0-3.26,2.64-5.9,5.9-5.9s5.9,2.64,5.9,5.9v13.84c0,3.26-2.64,5.9-5.9,5.9Z"/><path class="cls-4" d="M480.69,554.67c-3.26,0-5.9-2.64-5.9-5.9v-13.84c0-3.26,2.64-5.9,5.9-5.9s5.9,2.64,5.9,5.9v13.84c0,3.26-2.64,5.9-5.9,5.9Z"/><path class="cls-4" d="M458.61,521.73h-12.82c-3.26,0-5.9-2.64-5.9-5.9s2.64-5.9,5.9-5.9h12.82c3.26,0,5.9,2.64,5.9,5.9s-2.64,5.9-5.9,5.9Z"/><path class="cls-4" d="M515.13,521.73h-12.82c-3.26,0-5.9-2.64-5.9-5.9s2.64-5.9,5.9-5.9h12.82c3.26,0,5.9,2.64,5.9,5.9s-2.64,5.9-5.9,5.9Z"/><path class="cls-4" d="M938.6,701.24c-3.26,0-5.9-2.64-5.9-5.9v-13.84c0-3.26,2.64-5.9,5.9-5.9s5.9,2.64,5.9,5.9v13.84c0,3.26-2.64,5.9-5.9,5.9Z"/><path class="cls-4" d="M938.6,752.12c-3.26,0-5.9-2.64-5.9-5.9v-13.84c0-3.26,2.64-5.9,5.9-5.9s5.9,2.64,5.9,5.9v13.84c0,3.26-2.64,5.9-5.9,5.9Z"/><path class="cls-4" d="M916.51,719.19h-12.82c-3.26,0-5.9-2.64-5.9-5.9s2.64-5.9,5.9-5.9h12.82c3.26,0,5.9,2.64,5.9,5.9s-2.64,5.9-5.9,5.9Z"/><path class="cls-4" d="M973.04,719.19h-12.82c-3.26,0-5.9-2.64-5.9-5.9s2.64-5.9,5.9-5.9h12.82c3.26,0,5.9,2.64,5.9,5.9s-2.64,5.9-5.9,5.9Z"/><path class="cls-4" d="M875.75,608.45h0c.73.45,1.42.96,2.04,1.56-.63-.61-1.31-1.13-2.04-1.56ZM735.36,675.34c-1.68-2.38-4.33-3.75-7.26-3.75,2.72.08,6.04,2.01,7.55,4.18l-.29-.42ZM577.82,640.17c-.09.57-.14.79-.24,1.36.37-.21.74-.41,1.12-.6-.31-.24-.6-.48-.88-.76ZM574.09,568.54c1.1.83,2.25,1.68,3.47,2.55-1.22-.88-2.37-1.73-3.47-2.55Z"/><path class="cls-4" d="M1061.47,343.17c-1.31-4.54-3.65-8.77-6.77-12.3-5.78-6.56-13.4-10.45-21.67-11.36l-37.23-38.07-.38-.38c-4.71-4.38-11.28-6.23-17.58-4.92-6.29,1.32-11.56,5.63-14.11,11.53-.63,1.4-1.25,2.93-1.9,4.48-5,12-11.23,26.9-23.58,31.94-.67.27-1.31.54-1.96.83-26.66,11.44-37.63,27.71-41.81,36.54-.72,1.53-1.06,3.16-1.06,4.78,0,2.88,1.1,5.71,3.21,7.85l33.29,33.89c-11.74,10.58-24.23,21.24-37.42,31.98-8.6-24.03-24.66-43.34-43.46-52.1-14.28-6.65-29.56-6.95-44.24-.85-6.65,2.76-12.39,5.63-17.93,8.39-16.16,8.07-29.01,14.5-56.77,14.5-.63,0-1.25-.02-1.88-.02h-.22c-28.96.29-42.14-6.23-58.66-14.48-5.54-2.76-11.25-5.63-17.93-8.39-14.65-6.1-29.95-5.8-44.22.85-19.81,9.2-36.51,30.1-44.74,55.9-1.58,4.31-14.63,42.58-5.27,100.37,1.32,8.2,5.65,15.57,12.15,20.73,1.43,1.13,3.02,2.37,4.77,3.69,1.1.81,2.25,1.66,3.47,2.55.4.29.81.59,1.23.88.06.05.12.08.18.13,22.1,15.73,61.34,37.68,95.3,25.71,6.7-2.37,11.05-3.15,13.76-3.37-2.1,3.57-6.76,9.27-15.38,15.23-11.18,7.75-41.79,24.36-83.95,11.7-.31-.09-.63-.15-.93-.22-.45-.09-.92-.15-1.37-.2-.31-.02-.65-.05-.93-.05-.08,0-.18,0-.26.01-.2.01-.41.02-.61.04-.22,0-.42.02-.65.07-.4.04-.83.13-1.23.24-.25.07-.5.14-.72.21-.26.08-.53.18-.8.28l-.02.02c-.53.2-1.03.47-1.49.76-.02,0-.05.02-.07.05-.25.15-.5.32-.72.5-.24.18-.46.35-.68.53-.22.2-.45.4-.65.6-.2.22-.4.45-.6.67-.22.25-.42.52-.6.78-.17.22-.32.45-.45.67-.2.34-.39.67-.54,1.03-.11.25-.22.5-.31.74-.27.65-.45,1.33-.57,2.01-.06.32-.11.63-.13.96-.02.29-.05.61-.05.9-.02.34,0,.67.05,1,0,.18.02.39.07.57.05.42.13.85.22,1.25.04.2.08.4.15.58.11.33.22.67.35,1l.02.02c.09.22.2.44.31.66.06.13.13.26.21.39.08.18.19.34.29.51.31.5.65.97,1.03,1.4.12.14.25.28.39.42.13.14.27.28.41.41.28.27.58.52.88.76-.38.19-.75.39-1.12.6-.07.04-.14.08-.21.12-69.57,36.69-118.79,58.77-119.3,58.98-12.33,5.5-19.73,17.58-19.86,30.26-.09,4.66.85,9.43,2.86,13.96,3.2,7.19,8.65,12.81,15.32,16.21,4.24,2.19,9,3.47,14,3.67.98.04,1.96.01,2.94-.02,4.14-.2,8.15-1.17,11.95-2.84.72-.31,48.55-21.71,117.11-57.57,15.41,29.61,42.98,68.77,65.51,85.58.19.13.37.27.54.38,3.53,2.32,8.46,4.18,13.73,4.18,3.68,0,7.55-.91,11.16-3.21,12.33-7.82,15.82-27.45,10.95-61.77-1.27-9-.55-17.98,2.08-25.91,3.24-9.73,8.08-19.23,14.48-28.21.21-.29.42-.57.67-.84.11-.13.24-.26.37-.38.13-.13.26-.26.39-.37.13-.12.27-.24.4-.33.24-.18.46-.34.71-.5.12-.07.25-.14.38-.21.22-.13.46-.25.71-.35.15-.07.32-.14.48-.2.17-.06.33-.12.5-.17.17-.05.32-.09.48-.13.01,0,.02,0,.04-.01.24-.05.48-.09.73-.14.04,0,.07-.01.12-.01.13-.02.26-.04.4-.05.14-.02.28-.02.41-.04.12,0,.22-.01.34-.01h.13c2.93,0,5.58,1.37,7.26,3.75l.29.42.38.54c12.08,17.39,17.38,38.83,14.94,60.38-3.41,30.13.42,47.47,12.1,54.67,8.28,5.08,17.66,3.03,23.65-.5,34.92-15.41,80.39-122.58,85.33-136.66,3.81-10.9,8.71-32.79,8.91-33.73.78-3.5-.18-7.16-2.57-9.85-.19-.21-.39-.43-.6-.61-.63-.6-1.31-1.11-2.04-1.54h0c-2.03-1.23-4.42-1.77-6.84-1.5-31.24,3.23-79.43-18.89-84.95-67.51-.05-.45-.13-1.14,1.05-1.55,1.18-.42,1.55.15,1.78.52,16.58,25.79,44.74,37.4,83.66,34.61,3.11-.22,6.1-.93,8.87-2.05.01,0,.02-.01.02-.01.02-.01.06-.02.08-.04.01,0,.01-.01.02-.01.5-.2.98-.41,1.46-.64.53-.25,1.04-.51,1.55-.79.51-.27,1.01-.57,1.5-.87.48-.31.97-.63,1.44-.96.46-.33.91-.66,1.36-1.01.02-.01.04-.02.06-.06.04-.04.08-.06.12-.09.38-.31.75-.63,1.12-.96.05-.04.11-.08.15-.14.39-.35.77-.71,1.12-1.09.41-.4.8-.83,1.18-1.26.19-.21.38-.44.55-.66.21-.25.41-.5.6-.76.34-.44.66-.87.97-1.32.33-.48.64-.97.93-1.46.31-.51.59-1.01.86-1.53.2-.38.39-.77.57-1.17.22-.48.44-.98.64-1.49.19-.45.37-.92.52-1.39.01-.01.01-.02.01-.04.09-.25.18-.51.25-.77.19-.6.35-1.2.51-1.82,1.99-8.15,3.47-16.68,4.4-25.41.22-2.12-.15-4.15-1.03-5.95,44.36-33.69,82.52-66.99,114.41-99.71,14.98-15.38,28.59-30.66,40.75-45.77,6.9-8.54,9.17-19.74,6.03-30.65ZM978.78,304.17c.87-.87,1.9-1.5,3-1.85.88-.34,1.85-.47,2.78-.43,1.92.05,3.8.83,5.27,2.28l16.41,16.43c1.65,1.65,2.42,3.85,2.28,6-.11,1.83-.88,3.65-2.28,5.05-1.3,1.32-2.97,2.05-4.68,2.21v.02c-.27.02-.57.05-.83.05-.4,0-.8-.02-1.21-.08-1.58-.25-3.1-.99-4.33-2.19l-16.41-16.43c-.74-.74-1.3-1.59-1.68-2.48-1.2-2.84-.65-6.25,1.68-8.58ZM954.9,340.38c.07-1.88.83-3.75,2.28-5.2,1.77-1.76,4.18-2.52,6.48-2.23,1.68.2,3.31.93,4.58,2.23l12.22,12.22c1.18,1.18,1.9,2.65,2.16,4.19.32,1.86-.04,3.77-1.04,5.43-.32.52-.67.99-1.12,1.44-.25.24-.52.46-.78.66,0,0,0,.02-.02.02-1.39,1.05-3.07,1.59-4.74,1.59-.31,0-.63-.02-.93-.07-.32-.02-.63-.09-.94-.15-1.33-.34-2.61-1.03-3.63-2.05l-12.22-12.22c-1.31-1.3-2.05-2.95-2.23-4.65-.07-.4-.07-.8-.05-1.2ZM923.26,369.72c-.51-.51-.93-1.09-1.27-1.69-1.23-2.15-1.33-4.77-.31-7-.02-.02-.02-.05.02-.07.35-.83.88-1.6,1.56-2.28.78-.78,1.68-1.36,2.65-1.73,0-.02.05-.02.05-.02,2.8-1.1,6.1-.5,8.35,1.76l19.03,19.03c.8.8,1.4,1.75,1.78,2.75.4,1.1.59,2.23.47,3.4-.11,1.78-.87,3.55-2.25,4.91-1.43,1.45-3.28,2.22-5.16,2.28-.12.02-.25.02-.37.02-.83,0-1.65-.13-2.43-.38-.87-.29-1.7-.74-2.43-1.32-.02-.02-.05-.05-.07-.06-.2-.17-.38-.34-.58-.54l-19.05-19.05ZM476.23,741.44c-1.3.58-2.64.87-3.98.94-.34.02-.67.02-.99.02-4.11-.19-7.99-2.62-9.78-6.64-2.5-5.63.02-12.23,5.67-14.73,1.43-.63,63.49-33.21,138.88-73.5,4.27.43,8.47.65,12.58.65,40.74,0,73.53-20.34,86.64-39.27,5.5-7.9,6.82-14.4,6.42-19.32,16.54-9.63,36.82-20.99,53.4-31.12,2.25,7.63,5.38,14.66,9.2,21.06-25.15,16.03-51.64,32.14-79.46,48.32-118.14,68.71-217.6,113.15-218.58,113.6ZM787.96,597.26c19.05,19.5,45.2,30.08,67.98,31.98-1.55,6.21-3.4,13.11-4.95,17.58-11.48,32.82-53.27,115.82-73.43,123.67-.85.33-1.27.51-1.99,1-.26.15-.65.32-.98.42-1.1-1.9-4.06-9.43-1.43-32.71,3.06-26.93-3.6-53.8-18.73-75.63l-.83-1.17c-2.9-4.11-6.75-7.39-11.12-9.65-4.38-2.28-9.28-3.5-14.36-3.5-10.12,0-19.65,4.92-25.48,13.15-7.66,10.78-13.51,22.24-17.44,34.08-3.72,11.18-4.77,23.67-3,36.07,4.05,28.54.63,37.29-.58,39.37-.27-.09-.58-.22-.85-.33-18.9-14.4-44.57-50.79-58.62-77.75,25.99-13.86,54.37-29.54,83.9-46.72,28.69-16.71,56-33.32,81.91-49.87ZM790.61,515.9c-4.2-.87-8.71-.59-13.11.98-8.02,2.86-13.58,9.26-15.32,17.01-15.54,10.08-42,26.66-63.03,39.6-7.73-2.69-18.53-1.62-32.29,3.26-30.04,10.56-71.6-19.81-83.63-29.39-2.15-1.7-3.55-4.12-4-6.82-8.72-53.77,4.11-88.87,4.21-89.21.07-.2.17-.4.21-.6,6.25-19.76,18.86-36.09,32.95-42.65,8.56-3.98,17.38-4.14,26.25-.47,5.93,2.48,11.31,5.16,16.5,7.75,16.89,8.44,34.41,17.21,68.76,16.84,34.39.35,51.83-8.4,68.73-16.84,5.2-2.6,10.57-5.27,16.5-7.75,8.87-3.67,17.68-3.5,26.26.47,14.07,6.56,26.69,22.89,32.94,42.65.42,1.35,1.07,2.55,1.92,3.6-25.64,20.06-53.75,40.42-84.23,61l.38.57ZM875.22,545.39c-.71,2.95-3.34,5.14-6.38,5.37-4.2.31-8.2.41-12.01.33,6.88-4.82,13.61-9.67,20.26-14.51-.54,2.98-1.17,5.93-1.86,8.81ZM1038.08,359.82c-10.63,13.2-22.38,26.53-35.24,39.95-45.21,47.17-104.07,95.68-176.14,145.1-7.41-3.44-13.56-8.35-18.46-14.75,66.55-45.3,131.2-96,181.53-149.11,11.05-11.63,21.4-23.36,30.91-35.19,2.3-2.85,5.72-4.28,9.13-4.15,2.32.09,4.62.9,6.57,2.45,4.8,3.87,5.56,10.9,1.7,15.7Z"/><path class="cls-4" d="M824.29,467.83c-34.17,25.73-67.24,33.7-95.13,33.7-14.74,0-28.03-2.23-39.28-5.25-34.93-9.4-57.48-28.03-58.42-28.81-4.73-3.95-5.36-11.01-1.38-15.72,3.95-4.73,10.96-5.36,15.7-1.43,3.22,2.68,79.37,64.2,165.1-.34,4.91-3.71,11.93-2.72,15.63,2.21,3.71,4.91,2.72,11.93-2.21,15.63Z"/><path class="cls-4" d="M578.71,640.93c-.38.19-.75.39-1.12.6-.07.04-.14.08-.21.12l-2.19-5.27c.09.22.2.44.31.66.06.13.13.26.21.39.08.18.19.34.29.51.31.5.65.97,1.03,1.4.12.14.25.28.39.42.13.14.27.28.41.41.28.27.58.52.88.76Z"/><rect class="cls-3" x="220.56" width="1014.13" height="1149.44"/></svg>