<?xml version="1.0" encoding="UTF-8"?><svg id="Layer_1" xmlns="http://www.w3.org/2000/svg" viewBox="0 0 1455.26 1554.08"><defs><style>.cls-1{fill:#fff;}.cls-2{fill:#bfd9ea;}.cls-3{fill:none;}.cls-4{fill:#1e273a;}</style></defs><rect class="cls-3" x="220.56" y="0" width="1014.13" height="1149.44"/><path class="cls-1" d="M961.85,83.91c23.13,0,41.95-18.83,41.95-41.95S984.98,0,961.85,0s-41.95,18.83-41.95,41.95,18.83,41.95,41.95,41.95Z"/><path class="cls-1" d="M1232.6,212.56c-1.98-6.87-5.51-13.26-10.24-18.61-8.74-9.92-20.27-15.81-32.78-17.18l-56.32-57.59-.57-.57c-7.12-6.62-17.06-9.42-26.59-7.44-9.51,2-17.49,8.51-21.34,17.44-.95,2.12-1.89,4.42-2.87,6.78-7.57,18.15-16.99,40.69-35.67,48.31-1.02.41-1.98.82-2.96,1.25-64.73-53.54-143.3-90.96-229.54-106.06-7.8-1.39-15.7-2.57-23.65-3.55-20.43-2.61-41.28-3.93-62.42-3.93-273.64,0-495.44,221.84-495.44,495.46,0,83.87,20.84,162.91,57.66,232.17-.14,7.05,1.29,14.26,4.32,21.11,4.84,10.87,13.08,19.38,23.18,24.52,89.1,131.34,239.59,217.64,410.28,217.64,273.62,0,495.42-221.84,495.42-495.44,0-86.55-22.2-167.89-61.21-238.7,22.66-23.27,43.24-46.38,61.64-69.24,10.44-12.92,13.87-29.86,9.12-46.36Z"/><path class="cls-2" d="M1223.05,566.86c0,273.6-221.8,495.44-495.42,495.44-170.69,0-321.18-86.3-410.28-217.64,6.41,3.32,13.62,5.25,21.18,5.55,1.48.05,2.96.02,4.44-.04,6.26-.3,12.33-1.77,18.08-4.3,1.09-.46,73.43-32.84,177.15-87.09,23.31,44.79,65.01,104.02,99.1,129.45.29.2.55.41.82.57,5.34,3.52,12.79,6.32,20.77,6.32,5.57,0,11.42-1.37,16.88-4.85,18.65-11.83,23.93-41.53,16.56-93.44-1.93-13.62-.84-27.2,3.14-39.19,4.91-14.72,12.22-29.09,21.9-42.67.32-.45.64-.86,1.02-1.27.16-.2.36-.39.55-.57.2-.2.39-.37.59-.55.2-.18.39-.34.61-.5.36-.27.7-.52,1.07-.75.18-.11.37-.21.57-.32.34-.2.7-.37,1.07-.54.23-.11.48-.21.73-.3.25-.09.5-.18.75-.25.25-.07.48-.14.73-.2.02,0,.04,0,.05-.02.36-.07.73-.14,1.11-.21.05,0,.11-.02.18-.02.2-.04.39-.05.61-.07.21-.04.43-.04.62-.05.18,0,.34-.02.52-.02h.2c4.43,0,8.44,2.07,10.97,5.68l.45.64.57.82c18.27,26.3,26.29,58.73,22.59,91.33-5.16,45.58.64,71.81,18.31,82.7,12.53,7.69,26.71,4.59,35.78-.75,52.82-23.31,121.6-185.41,129.08-206.72,5.76-16.49,13.17-49.59,13.47-51.02,1.18-5.3-.27-10.83-3.89-14.9-.29-.32-.59-.64-.91-.93-.95-.91-1.98-1.68-3.09-2.34v-.02c-1.52-11.49-2.18-31.75,5.39-56.66.02,0,.04-.02.04-.02.04-.02.09-.04.12-.05.02,0,.02-.02.04-.02.75-.3,1.48-.62,2.21-.96.8-.37,1.57-.77,2.34-1.2.77-.41,1.53-.86,2.27-1.32.73-.46,1.46-.95,2.18-1.45.7-.5,1.37-1,2.05-1.53.04-.02.05-.04.09-.09.05-.05.12-.09.18-.14.57-.46,1.14-.95,1.7-1.45.07-.05.16-.13.23-.21.59-.54,1.16-1.07,1.7-1.64.62-.61,1.21-1.25,1.78-1.91.29-.32.57-.66.84-1,.32-.37.62-.75.91-1.14.52-.66,1-1.32,1.46-2,.5-.73.96-1.46,1.41-2.21.46-.77.89-1.54,1.3-2.32.3-.57.59-1.16.86-1.77.36-.73.68-1.48.96-2.25.29-.68.55-1.39.79-2.11.02-.02.02-.04.02-.05.14-.37.27-.77.37-1.16.29-.91.54-1.82.77-2.75,3.02-12.33,5.25-25.23,6.66-38.44.34-3.21-.23-6.28-1.55-8.99,67.1-50.97,124.83-101.33,173.06-150.83,39.01,70.81,61.21,152.15,61.21,238.7Z"/><path class="cls-2" d="M978.39,247.43c0-2.45.52-4.91,1.61-7.23,6.32-13.35,22.91-37.96,63.24-55.27-64.73-53.54-143.3-90.96-229.54-106.06-7.8-1.39-15.7-2.57-23.65-3.55-20.43-2.61-41.28-3.93-62.42-3.93-273.64,0-495.44,221.84-495.44,495.46,0,83.87,20.84,162.91,57.66,232.17.2-19.18,11.39-37.46,30.03-45.77.77-.3,75.22-33.71,180.45-89.21.11-.05.21-.13.32-.18.14-.86.21-1.2.36-2.05-.21-.2-.43-.41-.62-.62-.21-.21-.41-.43-.59-.64-.57-.66-1.09-1.37-1.55-2.12-.16-.25-.32-.5-.45-.77-.13-.2-.23-.39-.32-.59-.16-.34-.32-.66-.46-1l-.04-.04c-.2-.5-.37-1.02-.54-1.52-.11-.27-.18-.57-.23-.87-.14-.61-.27-1.25-.34-1.89-.07-.27-.11-.59-.11-.86-.07-.5-.11-1-.07-1.52,0-.43.04-.91.07-1.36.04-.5.11-.96.2-1.45.18-1.02.45-2.05.86-3.03.13-.37.3-.75.46-1.12.23-.54.52-1.04.82-1.55.2-.34.43-.68.68-1.02.27-.39.57-.8.91-1.18.3-.34.61-.68.91-1.02.3-.3.64-.61.98-.91.34-.27.68-.54,1.03-.8.34-.27.71-.52,1.09-.75.04-.04.07-.07.11-.07.7-.43,1.45-.84,2.25-1.14l.04-.04c.41-.16.82-.3,1.21-.43.34-.11.71-.21,1.09-.32.61-.16,1.25-.3,1.86-.36.34-.07.64-.11.98-.11.3-.02.62-.04.93-.05,1.77-24.5-3.11-51.09-9.42-73.83-.09-.07-.18-.12-.27-.2-.62-.45-1.25-.89-1.86-1.34-1.84-1.34-3.59-2.62-5.25-3.85-2.64-2-5.05-3.87-7.21-5.59-9.83-7.8-16.38-18.95-18.38-31.35-14.15-87.42,5.59-145.31,7.98-151.83,12.44-39.03,37.71-70.63,67.67-84.55,21.57-10.07,44.72-10.51,66.88-1.29,10.1,4.18,18.74,8.51,27.12,12.69,24.98,12.47,44.92,22.34,88.73,21.9h.34c.95,0,1.89.04,2.84.04,41.99,0,61.42-9.73,85.87-21.93,8.39-4.18,17.06-8.51,27.13-12.69,22.2-9.23,45.33-8.78,66.92,1.29,28.45,13.24,52.73,42.45,65.74,78.8,19.95-16.26,38.85-32.37,56.61-48.38l-50.36-51.27c-3.19-3.23-4.85-7.51-4.85-11.87ZM889.04,198.12c-19.36,0-35.07-15.74-35.07-35.07s15.7-35.07,35.07-35.07,35.05,15.74,35.05,35.07-15.74,35.07-35.05,35.07Z"/><path class="cls-4" d="M889.04,111.79c-28.27,0-51.26,22.99-51.26,51.26s22.99,51.24,51.26,51.24,51.24-22.99,51.24-51.24-22.99-51.26-51.24-51.26ZM920.75,163.06c0,17.49-14.22,31.72-31.72,31.72s-31.73-14.22-31.73-31.72,14.22-31.73,31.73-31.73,31.72,14.24,31.72,31.73Z"/><path class="cls-4" d="M961.85,0C938.72,0,919.89,18.83,919.89,41.95s18.83,41.95,41.95,41.95,41.95-18.83,41.95-41.95S984.98,0,961.85,0ZM961.85,66.06c-13.29,0-24.11-10.81-24.11-24.11s10.81-24.11,24.11-24.11,24.11,10.81,24.11,24.11-10.81,24.11-24.11,24.11Z"/><path class="cls-4" d="M354.09,455.51c-4.93,0-8.92-3.99-8.92-8.92v-20.94c0-4.93,3.99-8.92,8.92-8.92s8.92,3.99,8.92,8.92v20.94c0,4.93-3.99,8.92-8.92,8.92Z"/><path class="cls-4" d="M354.09,532.48c-4.93,0-8.92-3.99-8.92-8.92v-20.94c0-4.93,3.99-8.92,8.92-8.92s8.92,3.99,8.92,8.92v20.94c0,4.93-3.99,8.92-8.92,8.92Z"/><path class="cls-4" d="M320.68,482.65h-19.39c-4.93,0-8.92-3.99-8.92-8.92s3.99-8.92,8.92-8.92h19.39c4.93,0,8.92,3.99,8.92,8.92s-3.99,8.92-8.92,8.92Z"/><path class="cls-4" d="M406.19,482.65h-19.39c-4.93,0-8.92-3.99-8.92-8.92s3.99-8.92,8.92-8.92h19.39c4.93,0,8.92,3.99,8.92,8.92s-3.99,8.92-8.92,8.92Z"/><path class="cls-4" d="M1046.73,754.2c-4.93,0-8.92-3.99-8.92-8.92v-20.94c0-4.93,3.99-8.92,8.92-8.92s8.92,3.99,8.92,8.92v20.94c0,4.93-3.99,8.92-8.92,8.92Z"/><path class="cls-4" d="M1046.73,831.16c-4.93,0-8.92-3.99-8.92-8.92v-20.94c0-4.93,3.99-8.92,8.92-8.92s8.92,3.99,8.92,8.92v20.94c0,4.93-3.99,8.92-8.92,8.92Z"/><path class="cls-4" d="M1013.33,781.34h-19.39c-4.93,0-8.92-3.99-8.92-8.92s3.99-8.92,8.92-8.92h19.39c4.93,0,8.92,3.99,8.92,8.92s-3.99,8.92-8.92,8.92Z"/><path class="cls-4" d="M1098.83,781.34h-19.39c-4.93,0-8.92-3.99-8.92-8.92s3.99-8.92,8.92-8.92h19.39c4.93,0,8.92,3.99,8.92,8.92s-3.99,8.92-8.92,8.92Z"/><path class="cls-4" d="M951.68,613.83v.02c1.11.66,2.14,1.43,3.09,2.34-.95-.93-1.98-1.71-3.09-2.36ZM739.32,715.01c-2.53-3.6-6.55-5.68-10.97-5.68,4.12.13,9.14,3.03,11.42,6.32l-.45-.64ZM501.01,661.81c-.14.86-.21,1.2-.36,2.05.55-.32,1.12-.62,1.7-.91-.46-.36-.91-.73-1.34-1.14ZM495.37,553.45c1.66,1.25,3.41,2.53,5.25,3.85-1.84-1.34-3.59-2.62-5.25-3.85Z"/><path class="cls-4" d="M1232.6,212.56c-1.98-6.87-5.51-13.26-10.24-18.61-8.74-9.92-20.27-15.81-32.78-17.18l-56.32-57.59-.57-.57c-7.12-6.62-17.06-9.42-26.59-7.44-9.51,2-17.49,8.51-21.34,17.44-.95,2.12-1.89,4.42-2.87,6.78-7.57,18.15-16.99,40.69-35.67,48.31-1.02.41-1.98.82-2.96,1.25-40.33,17.31-56.93,41.92-63.24,55.27-1.09,2.32-1.61,4.78-1.61,7.23,0,4.35,1.66,8.64,4.85,11.87l50.36,51.27c-17.76,16.01-36.65,32.12-56.61,48.38-13.01-36.35-37.3-65.56-65.74-78.8-21.59-10.07-44.72-10.51-66.92-1.29-10.07,4.18-18.74,8.51-27.13,12.69-24.45,12.21-43.88,21.93-85.87,21.93-.95,0-1.89-.04-2.84-.04h-.34c-43.81.45-63.74-9.42-88.73-21.9-8.39-4.18-17.02-8.51-27.12-12.69-22.16-9.23-45.31-8.78-66.88,1.29-29.96,13.92-55.23,45.52-67.67,84.55-2.39,6.51-22.13,64.4-7.98,151.83,2,12.4,8.55,23.56,18.38,31.35,2.16,1.71,4.57,3.59,7.21,5.59,1.66,1.23,3.41,2.52,5.25,3.85.61.45,1.23.89,1.86,1.34.09.07.18.12.27.2,33.42,23.79,92.78,57,144.15,38.89,10.14-3.59,16.72-4.76,20.81-5.1-3.18,5.41-10.23,14.03-23.27,23.04-16.92,11.72-63.21,36.85-126.99,17.7-.46-.14-.95-.23-1.41-.34-.68-.14-1.39-.23-2.07-.3-.46-.04-.98-.07-1.41-.07-.13,0-.27,0-.39.02-.3.02-.62.04-.93.05-.34,0-.64.03-.98.11-.61.05-1.25.2-1.86.36-.38.11-.75.21-1.09.32-.39.12-.8.27-1.21.43l-.04.04c-.8.3-1.55.71-2.25,1.14-.04,0-.07.04-.11.07-.37.23-.75.48-1.09.75-.36.27-.7.54-1.03.8-.34.3-.68.61-.98.91-.3.34-.61.68-.91,1.02-.34.37-.64.79-.91,1.18-.25.34-.48.68-.68,1.02-.3.52-.59,1.02-.82,1.55-.16.37-.34.75-.46,1.12-.41.98-.68,2.02-.86,3.03-.09.48-.16.95-.2,1.45-.04.45-.07.93-.07,1.36-.04.52,0,1.02.07,1.52,0,.27.04.59.11.86.07.64.2,1.29.34,1.89.05.3.12.61.23.87.16.5.34,1.02.54,1.52l.04.04c.14.34.3.66.46,1,.09.2.2.39.32.59.13.27.29.52.45.77.46.75.98,1.46,1.55,2.12.18.21.37.43.59.64.2.21.41.43.62.62.43.41.87.79,1.34,1.14-.57.28-1.14.59-1.7.91-.11.05-.21.12-.32.18-105.23,55.5-179.69,88.91-180.45,89.21-18.65,8.32-29.84,26.59-30.03,45.77-.14,7.05,1.29,14.26,4.32,21.11,4.84,10.87,13.08,19.38,23.18,24.52,6.41,3.32,13.62,5.25,21.18,5.55,1.48.05,2.96.02,4.44-.04,6.26-.3,12.33-1.77,18.08-4.3,1.09-.46,73.43-32.84,177.15-87.09,23.31,44.79,65.01,104.02,99.1,129.45.29.2.55.41.82.57,5.34,3.52,12.79,6.32,20.77,6.32,5.57,0,11.42-1.37,16.88-4.85,18.65-11.83,23.93-41.53,16.56-93.44-1.93-13.62-.84-27.2,3.14-39.19,4.91-14.72,12.22-29.09,21.9-42.67.32-.45.64-.86,1.02-1.27.16-.2.36-.39.55-.57.2-.2.39-.39.59-.55.2-.18.41-.36.61-.5.36-.27.7-.52,1.07-.75.18-.11.37-.21.57-.32.34-.2.7-.37,1.07-.54.23-.11.48-.21.73-.3.25-.09.5-.18.75-.25.25-.07.48-.14.73-.2.02,0,.04,0,.05-.02.36-.07.73-.14,1.11-.21.05,0,.11-.02.18-.02.2-.04.39-.05.61-.07.21-.04.43-.04.62-.05.18,0,.34-.02.52-.02h.2c4.43,0,8.44,2.07,10.97,5.68l.45.64.57.82c18.27,26.3,26.29,58.73,22.59,91.33-5.16,45.58.64,71.81,18.31,82.7,12.53,7.69,26.71,4.59,35.78-.75,52.82-23.31,121.6-185.41,129.08-206.72,5.76-16.49,13.17-49.59,13.47-51.02,1.18-5.3-.27-10.83-3.89-14.9-.29-.32-.59-.64-.91-.93-.95-.91-1.98-1.68-3.09-2.34v-.02c-3.07-1.84-6.69-2.66-10.35-2.25-47.25,4.89-120.15-28.57-128.5-102.11-.07-.68-.2-1.73,1.59-2.34,1.78-.64,2.34.23,2.69.79,25.07,39.01,67.67,56.57,126.54,52.36,4.71-.34,9.23-1.41,13.42-3.11.02,0,.04-.02.04-.02.04-.02.09-.04.12-.05.02,0,.02-.02.04-.02.75-.3,1.48-.62,2.21-.96.8-.37,1.57-.77,2.34-1.2.77-.41,1.53-.86,2.27-1.32.73-.46,1.46-.95,2.18-1.45.7-.5,1.37-1,2.05-1.53.04-.02.05-.04.09-.09.05-.05.12-.09.18-.14.57-.46,1.14-.95,1.7-1.45.07-.05.16-.13.23-.21.59-.54,1.16-1.07,1.7-1.64.62-.61,1.21-1.25,1.78-1.91.29-.32.57-.66.84-1,.32-.37.62-.75.91-1.14.52-.66,1-1.32,1.46-2,.5-.73.96-1.46,1.41-2.21.46-.77.89-1.54,1.3-2.32.3-.57.59-1.16.86-1.77.34-.73.66-1.48.96-2.25.29-.68.55-1.39.79-2.11.02-.02.02-.04.02-.05.14-.37.27-.77.37-1.16.29-.91.54-1.82.77-2.75,3.02-12.33,5.25-25.23,6.66-38.44.34-3.21-.23-6.28-1.55-8.99,67.1-50.97,124.83-101.33,173.06-150.83,22.66-23.27,43.24-46.38,61.64-69.24,10.44-12.92,13.87-29.86,9.12-46.36ZM1107.52,153.56c1.32-1.32,2.87-2.27,4.53-2.8,1.34-.52,2.8-.71,4.21-.64,2.91.07,5.75,1.25,7.98,3.44l24.82,24.86c2.5,2.5,3.66,5.82,3.44,9.08-.16,2.77-1.34,5.51-3.44,7.64-1.96,2-4.5,3.11-7.08,3.34v.04c-.41.04-.86.07-1.25.07-.61,0-1.21-.04-1.84-.12-2.39-.37-4.69-1.5-6.55-3.32l-24.82-24.86c-1.12-1.12-1.96-2.41-2.53-3.75-1.82-4.3-.98-9.46,2.53-12.97ZM1071.4,208.34c.11-2.84,1.25-5.68,3.44-7.87,2.68-2.66,6.32-3.82,9.8-3.37,2.53.3,5.01,1.41,6.92,3.37l18.49,18.49c1.78,1.78,2.87,4.02,3.27,6.34.48,2.82-.05,5.71-1.57,8.21-.48.79-1.02,1.5-1.69,2.18-.37.36-.79.7-1.18,1,0,0,0,.04-.04.04-2.11,1.59-4.64,2.41-7.17,2.41-.46,0-.95-.04-1.41-.11-.48-.04-.95-.14-1.43-.23-2.02-.52-3.94-1.55-5.5-3.11l-18.49-18.49c-1.98-1.96-3.11-4.46-3.37-7.03-.11-.61-.11-1.21-.07-1.82ZM1023.54,252.73c-.77-.77-1.41-1.64-1.93-2.55-1.86-3.25-2.02-7.21-.46-10.58-.04-.04-.04-.07.03-.11.54-1.25,1.34-2.43,2.36-3.44,1.18-1.18,2.53-2.05,4.02-2.62,0-.04.07-.04.07-.04,4.23-1.66,9.23-.75,12.63,2.66l28.78,28.78c1.21,1.21,2.12,2.64,2.69,4.16.61,1.66.89,3.37.71,5.14-.16,2.69-1.32,5.37-3.41,7.42-2.16,2.19-4.96,3.35-7.8,3.44-.18.04-.37.04-.55.04-1.25,0-2.5-.2-3.68-.57-1.32-.45-2.57-1.12-3.68-2-.04-.04-.07-.07-.11-.09-.3-.25-.57-.52-.87-.82l-28.82-28.82ZM347.34,815c-1.96.87-4,1.32-6.01,1.43-.52.04-1.02.04-1.5.04-6.21-.29-12.08-3.96-14.79-10.05-3.78-8.51.04-18.5,8.58-22.29,2.16-.95,96.04-50.23,210.08-111.18,6.46.64,12.81.98,19.02.98,61.62,0,111.23-30.77,131.06-59.41,8.32-11.96,10.31-21.79,9.71-29.23,25.02-14.56,55.7-31.75,80.77-47.08,3.41,11.55,8.14,22.18,13.92,31.85-38.05,24.25-78.11,48.61-120.19,73.09-178.7,103.93-329.16,171.15-330.64,171.83ZM818.87,596.91c28.82,29.5,68.37,45.51,102.82,48.38-2.34,9.39-5.14,19.83-7.49,26.59-17.36,49.65-80.57,175.19-111.07,187.07-1.28.5-1.93.77-3.02,1.52-.39.23-.98.48-1.48.64-1.66-2.87-6.14-14.26-2.16-49.48,4.62-40.74-5.44-81.37-28.34-114.41l-1.25-1.77c-4.39-6.21-10.21-11.17-16.83-14.6-6.62-3.44-14.04-5.3-21.72-5.3-15.31,0-29.73,7.44-38.55,19.9-11.58,16.31-20.43,33.64-26.38,51.55-5.62,16.92-7.21,35.8-4.53,54.55,6.12,43.17.95,56.41-.87,59.55-.41-.14-.87-.34-1.28-.5-28.59-21.79-67.42-76.82-88.67-117.6,39.31-20.97,82.25-44.68,126.92-70.67,43.4-25.27,84.71-50.39,123.9-75.43ZM822.89,473.83c-6.35-1.32-13.17-.89-19.83,1.48-12.13,4.32-20.54,14.01-23.18,25.73-23.5,15.24-63.53,40.33-95.35,59.91-11.69-4.07-28.04-2.45-48.84,4.92-45.43,15.97-108.3-29.96-126.51-44.45-3.25-2.57-5.37-6.23-6.05-10.32-13.19-81.34,6.21-134.43,6.37-134.95.11-.3.25-.61.32-.91,9.46-29.89,28.53-54.59,49.84-64.51,12.96-6.01,26.29-6.26,39.71-.71,8.98,3.75,17.11,7.8,24.97,11.72,25.55,12.76,52.05,26.04,104,25.47,52.02.54,78.39-12.71,103.97-25.47,7.87-3.93,15.99-7.98,24.97-11.72,13.42-5.55,26.75-5.3,39.72.71,21.29,9.92,40.37,34.62,49.82,64.51.64,2.03,1.62,3.85,2.91,5.44-38.78,30.34-81.3,61.14-127.42,92.28l.57.86ZM950.87,518.44c-1.07,4.46-5.05,7.78-9.65,8.12-6.35.46-12.4.62-18.17.5,10.4-7.3,20.59-14.63,30.64-21.95-.82,4.51-1.77,8.98-2.82,13.33ZM1197.21,237.74c-16.08,19.97-33.85,40.13-53.3,60.42-68.38,71.35-157.41,144.73-266.43,219.48-11.21-5.21-20.5-12.63-27.93-22.31,100.67-68.53,198.46-145.21,274.59-225.55,16.72-17.6,32.37-35.33,46.75-53.23,3.48-4.32,8.66-6.48,13.81-6.28,3.52.14,7,1.36,9.94,3.71,7.26,5.85,8.41,16.49,2.57,23.75Z"/><path class="cls-4" d="M873.83,401.13c-51.68,38.91-101.71,50.97-143.9,50.97-22.3,0-42.39-3.38-59.42-7.94-52.83-14.22-86.95-42.39-88.37-43.58-7.16-5.98-8.11-16.65-2.09-23.78,5.98-7.16,16.59-8.11,23.75-2.16,4.86,4.05,120.05,97.12,249.73-.51,7.43-5.61,18.04-4.12,23.65,3.34,5.61,7.43,4.12,18.04-3.34,23.65Z"/><path class="cls-4" d="M502.35,662.95c-.57.28-1.14.59-1.7.91-.11.05-.21.12-.32.18l-3.32-7.98c.14.34.3.66.46,1,.09.2.2.39.32.59.13.27.29.52.45.77.46.75.98,1.46,1.55,2.12.18.21.37.43.59.64.2.21.41.43.62.62.43.41.87.79,1.34,1.14Z"/><path class="cls-1" d="M71.48,1553.25h-10.48v-73.35h51.77v9.12h-41.29v64.24ZM70.43,1514.58h37.83v9.01h-37.83v-9.01Z"/><path class="cls-1" d="M137.4,1553.25l33.22-73.35h10.37l33.32,73.35h-11l-29.66-67.49h4.19l-29.66,67.49h-10.79ZM151.54,1534.91l2.83-8.38h41.29l3.04,8.38h-47.16Z"/><path class="cls-1" d="M246.17,1553.25v-73.35h8.59l32.91,55.44h-4.61l32.49-55.44h8.59l.11,73.35h-10.06l-.1-57.53h2.41l-28.92,48.62h-4.82l-29.13-48.62h2.62v57.53h-10.06Z"/><path class="cls-1" d="M367.2,1553.25v-73.35h10.48v73.35h-10.48Z"/><path class="cls-1" d="M420.64,1553.25v-73.35h10.48v64.24h39.72v9.12h-50.2Z"/><path class="cls-1" d="M521.56,1553.25v-28.08l2.41,6.5-31.54-51.77h11.21l26.51,43.7h-6.08l26.62-43.7h10.38l-31.44,51.77,2.3-6.5v28.08h-10.37Z"/><path class="cls-1" d="M641.75,1553.25v-73.35h30.91c7.82,0,14.72,1.54,20.7,4.61,5.97,3.08,10.62,7.37,13.94,12.89,3.32,5.52,4.98,11.91,4.98,19.18s-1.66,13.66-4.98,19.18c-3.32,5.52-7.96,9.82-13.94,12.89-5.97,3.07-12.87,4.61-20.7,4.61h-30.91ZM652.23,1544.13h19.81c6.08,0,11.33-1.15,15.77-3.46,4.44-2.31,7.88-5.54,10.32-9.69,2.44-4.16,3.67-8.96,3.67-14.41s-1.22-10.34-3.67-14.46c-2.45-4.12-5.89-7.33-10.32-9.64-4.44-2.31-9.69-3.46-15.77-3.46h-19.81v55.12Z"/><path class="cls-1" d="M759.75,1544.13h42.75v9.12h-53.23v-73.35h51.77v9.12h-41.29v55.12ZM758.8,1511.54h37.73v8.91h-37.73v-8.91Z"/><path class="cls-1" d="M840.44,1553.25v-73.35h8.59l48.52,60.26h-4.51v-60.26h10.48v73.35h-8.59l-48.52-60.25h4.51v60.25h-10.48Z"/><path class="cls-1" d="M961.05,1553.25v-64.24h-25.15v-9.12h60.67v9.12h-25.15v64.24h-10.37Z"/><path class="cls-1" d="M1028.96,1553.25v-73.35h10.48v73.35h-10.48Z"/><path class="cls-1" d="M1103.78,1554.08c-5.59,0-10.93-.85-16.03-2.57-5.1-1.71-9.12-3.93-12.05-6.65l3.88-8.17c2.79,2.45,6.36,4.47,10.69,6.08,4.33,1.61,8.84,2.41,13.52,2.41,4.26,0,7.72-.49,10.37-1.47,2.65-.98,4.61-2.32,5.87-4.03,1.26-1.71,1.89-3.65,1.89-5.82,0-2.51-.82-4.54-2.46-6.08-1.64-1.54-3.77-2.78-6.39-3.72-2.62-.94-5.5-1.76-8.64-2.46-3.14-.7-6.31-1.52-9.48-2.46-3.18-.94-6.08-2.15-8.7-3.62-2.62-1.47-4.73-3.44-6.34-5.92-1.61-2.48-2.41-5.68-2.41-9.59s1-7.25,2.99-10.43c1.99-3.18,5.06-5.73,9.22-7.65,4.16-1.92,9.45-2.88,15.88-2.88,4.26,0,8.49.56,12.68,1.68,4.19,1.12,7.82,2.72,10.9,4.82l-3.46,8.38c-3.14-2.1-6.46-3.62-9.96-4.56-3.49-.94-6.88-1.42-10.17-1.42-4.12,0-7.51.52-10.17,1.57-2.66,1.05-4.59,2.45-5.82,4.19-1.22,1.75-1.83,3.7-1.83,5.87,0,2.58.82,4.65,2.46,6.18,1.64,1.54,3.77,2.76,6.39,3.67,2.62.91,5.5,1.73,8.65,2.46,3.14.73,6.3,1.55,9.48,2.46,3.18.91,6.08,2.1,8.7,3.56,2.62,1.47,4.73,3.42,6.34,5.87,1.61,2.45,2.41,5.59,2.41,9.43s-1.01,7.14-3.04,10.32c-2.03,3.18-5.15,5.73-9.38,7.65-4.23,1.92-9.55,2.88-15.98,2.88Z"/><path class="cls-1" d="M1183,1553.25v-64.24h-25.15v-9.12h60.67v9.12h-25.15v64.24h-10.37Z"/><path class="cls-1" d="M1250.9,1553.25v-73.35h28.61c6.43,0,11.91,1.01,16.45,3.04,4.54,2.03,8.03,4.96,10.48,8.8,2.44,3.84,3.67,8.42,3.67,13.73s-1.22,9.87-3.67,13.68c-2.45,3.81-5.94,6.72-10.48,8.75-4.54,2.03-10.03,3.04-16.45,3.04h-22.84l4.72-4.82v27.14h-10.48ZM1261.38,1527.15l-4.72-5.13h22.53c6.71,0,11.79-1.45,15.25-4.35,3.46-2.9,5.19-6.97,5.19-12.21s-1.73-9.29-5.19-12.16c-3.46-2.86-8.54-4.3-15.25-4.3h-22.53l4.72-5.24v43.38ZM1299.94,1553.25l-18.65-26.62h11.21l18.86,26.62h-11.42Z"/><path class="cls-1" d="M1365.75,1553.25v-28.08l2.41,6.5-31.54-51.77h11.21l26.51,43.7h-6.08l26.62-43.7h10.38l-31.44,51.77,2.3-6.5v28.08h-10.37Z"/><path class="cls-1" d="M163.21,1400.91c-11.26,0-22.01-1.62-32.24-4.84-10.23-3.23-18.44-7.38-24.62-12.46l9.27-20.81c5.77,4.53,12.91,8.31,21.43,11.33,8.51,3.02,17.24,4.53,26.17,4.53,7.55,0,13.67-.82,18.34-2.47,4.67-1.65,8.1-3.88,10.3-6.7,2.2-2.81,3.3-6.01,3.3-9.58,0-4.39-1.58-7.93-4.74-10.61-3.16-2.68-7.25-4.81-12.26-6.39-5.02-1.58-10.58-3.02-16.69-4.33-6.11-1.3-12.23-2.92-18.34-4.84-6.11-1.92-11.71-4.36-16.79-7.31-5.08-2.95-9.17-6.9-12.26-11.85-3.09-4.95-4.64-11.26-4.64-18.96s2.09-15,6.28-21.53c4.19-6.52,10.58-11.74,19.16-15.66,8.58-3.92,19.47-5.87,32.66-5.87,8.65,0,17.24,1.1,25.75,3.3,8.51,2.2,15.93,5.36,22.25,9.48l-8.45,20.81c-6.46-3.84-13.12-6.7-19.98-8.55-6.87-1.85-13.46-2.78-19.78-2.78-7.28,0-13.26.89-17.92,2.68-4.67,1.79-8.07,4.16-10.2,7.11-2.13,2.96-3.19,6.22-3.19,9.79,0,4.4,1.54,7.93,4.64,10.61,3.09,2.68,7.14,4.77,12.16,6.28,5.01,1.51,10.61,2.96,16.79,4.33,6.18,1.37,12.29,2.99,18.34,4.84,6.04,1.85,11.6,4.26,16.69,7.21,5.08,2.96,9.17,6.87,12.26,11.74,3.09,4.88,4.64,11.09,4.64,18.65s-2.1,14.8-6.28,21.32c-4.19,6.53-10.61,11.74-19.26,15.66-8.65,3.91-19.57,5.87-32.76,5.87Z"/><path class="cls-1" d="M309.91,1398.85v-144.22h22.04l63.05,105.28h-11.54l62.02-105.28h22.04l.41,144.22h-25.75v-104.46h5.15l-52.33,88.18h-12.16l-53.57-88.18h6.18v104.46h-25.55Z"/><path class="cls-1" d="M568.47,1398.85v-144.22h26.78v144.22h-26.78Z"/><path class="cls-1" d="M696,1398.85v-144.22h26.78v121.56h75.41v22.66h-102.19Z"/><path class="cls-1" d="M881.22,1398.85v-144.22h26.78v144.22h-26.78Z"/><path class="cls-1" d="M1008.75,1398.85v-144.22h22.04l90.45,111.26h-10.92v-111.26h26.37v144.22h-22.05l-90.24-111.26h10.92v111.26h-26.58Z"/><path class="cls-1" d="M1264.23,1376.18h81.38v22.66h-108.17v-144.22h105.28v22.66h-78.5v98.9ZM1262.17,1314.58h71.7v22.04h-71.7v-22.04Z"/></svg>